M48
; DRILL file {KiCad 5.1.7-a382d34a8~87~ubuntu18.04.1} date Mon Nov  2 20:40:54 2020
; FORMAT={-:-/ absolute / inch / decimal}
; #@! TF.CreationDate,2020-11-02T20:40:54+02:00
; #@! TF.GenerationSoftware,Kicad,Pcbnew,5.1.7-a382d34a8~87~ubuntu18.04.1
FMAT,2
INCH
T1C0.0079
T2C0.0100
T3C0.0118
T4C0.0157
T5C0.0394
%
G90
G05
T1
X6.7581Y-5.2427
X6.7581Y-5.2919
X6.8073Y-5.2427
X6.8073Y-5.2919
T2
X8.738Y-5.288
X8.738Y-5.319
X8.738Y-5.35
X8.738Y-5.381
X8.738Y-5.412
X8.769Y-5.288
X8.769Y-5.319
X8.769Y-5.35
X8.769Y-5.381
X8.769Y-5.412
X8.8Y-5.288
X8.8Y-5.319
X8.8Y-5.35
X8.8Y-5.381
X8.8Y-5.412
X8.831Y-5.288
X8.831Y-5.319
X8.831Y-5.35
X8.831Y-5.381
X8.831Y-5.412
X8.862Y-5.288
X8.862Y-5.319
X8.862Y-5.35
X8.862Y-5.381
X8.862Y-5.412
T3
X8.6665Y-5.8933
X8.7291Y-5.8933
X8.8555Y-5.8933
X8.9185Y-5.8933
X8.9815Y-5.8933
X9.0445Y-5.8933
X9.1075Y-5.8933
X9.1705Y-5.8933
X9.2335Y-5.8933
T4
X1.05Y-5.8
X5.8Y-5.8
X6.0Y-5.8
X6.1Y-5.6
X6.15Y-4.95
X6.35Y-5.1
X6.4Y-5.25
X6.6Y-5.2
X6.6Y-5.5
X6.6683Y-5.1716
X6.7164Y-5.1926
X6.7312Y-5.1561
X6.8Y-5.5
X6.8455Y-5.0764
X6.85Y-5.75
X6.85Y-5.9
X6.8645Y-5.205
X6.8992Y-5.1155
X6.9Y-5.4
X6.95Y-4.7
X6.95Y-5.25
X7.0Y-5.3
X7.0Y-5.9
X7.05Y-5.45
X7.05Y-5.6
X7.2Y-4.65
X7.2Y-4.95
X7.4Y-4.85
X7.45Y-4.65
X7.6Y-4.7
X7.65Y-5.25
X7.65Y-5.9
X7.7188Y-4.8286
X7.8Y-4.95
X7.8Y-5.15
X7.9Y-4.75
X8.05Y-4.9
X8.05Y-4.95
X8.1Y-4.75
X8.1Y-5.45
X8.15Y-5.1
X8.15Y-5.9
X8.2Y-4.9
X8.35Y-4.9
X8.35Y-5.1
X8.4Y-4.9
X8.4322Y-4.9264
X8.45Y-5.4
X8.4652Y-4.9478
X8.5Y-4.8
X8.5Y-5.2
X8.5213Y-4.6713
X8.5478Y-5.1649
X8.55Y-5.4
X8.55Y-5.55
X8.55Y-5.9
X8.5665Y-5.2684
X8.5665Y-5.3099
X8.5996Y-4.8947
X8.6Y-5.5
X8.6497Y-4.8898
X8.65Y-4.75
X8.65Y-5.1555
X8.6715Y-5.4993
X8.75Y-4.8
X8.7503Y-5.5503
X8.7902Y-5.7
X8.7971Y-5.1535
X8.85Y-5.5
X8.8852Y-5.169
X8.9287Y-5.1701
X8.9499Y-5.1317
X8.95Y-5.45
X9.0208Y-5.2592
X9.047Y-5.1529
X9.0539Y-5.4185
X9.0707Y-5.1208
X9.0925Y-5.0253
X9.0992Y-5.39
X9.1Y-5.6
X9.1Y-5.75
X9.1741Y-5.1965
X9.2Y-5.1
X9.3Y-4.95
X9.3Y-5.9
X9.35Y-4.8
X9.433Y-5.2219
X9.45Y-5.35
X9.45Y-5.6
X9.4998Y-5.1498
X9.5215Y-5.5715
X9.55Y-4.85
X9.6Y-5.75
X9.75Y-5.9
X10.0Y-5.75
X10.7Y-5.8
T5
X1.35Y-5.8
X1.45Y-5.8
X1.55Y-5.8
X1.65Y-5.8
X7.2Y-5.55
X7.2Y-5.65
X5.2Y-5.8
X5.3Y-5.8
X5.4Y-5.8
X5.5Y-5.8
X8.2Y-5.2
X8.2Y-5.3
X8.2Y-5.4
X8.2Y-5.5
X8.2Y-5.6
X8.2Y-5.7
X8.3Y-5.2
X8.3Y-5.3
X8.3Y-5.4
X8.3Y-5.5
X8.3Y-5.6
X8.3Y-5.7
X6.5Y-5.75
X6.5Y-5.85
X6.35Y-5.75
X6.35Y-5.85
X9.25Y-5.2
X9.25Y-5.3
X9.25Y-5.4
X9.25Y-5.5
X9.35Y-5.2
X9.35Y-5.3
X9.35Y-5.4
X9.35Y-5.5
X6.2Y-5.05
X6.2Y-5.15
X6.2Y-5.25
X6.2Y-5.35
X10.1Y-5.8
X10.2Y-5.8
X10.3Y-5.8
X10.4Y-5.8
X6.2Y-5.55
X6.2Y-5.65
X6.2Y-5.75
X6.2Y-5.85
X9.55Y-5.2
X9.55Y-5.3
X9.55Y-5.4
X9.55Y-5.5
X7.3Y-5.55
X7.3Y-5.65
X7.3Y-5.75
X7.3Y-5.85
T0
M30
