%TF.GenerationSoftware,KiCad,Pcbnew,5.1.7-a382d34a8~87~ubuntu18.04.1*%
%TF.CreationDate,2020-11-02T20:34:46+02:00*%
%TF.ProjectId,sens-rf-1w-1-kicad,73656e73-2d72-4662-9d31-772d312d6b69,0.0*%
%TF.SameCoordinates,Original*%
%TF.FileFunction,Soldermask,Bot*%
%TF.FilePolarity,Negative*%
%FSLAX46Y46*%
G04 Gerber Fmt 4.6, Leading zero omitted, Abs format (unit mm)*
G04 Created by KiCad (PCBNEW 5.1.7-a382d34a8~87~ubuntu18.04.1) date 2020-11-02 20:34:46*
%MOMM*%
%LPD*%
G01*
G04 APERTURE LIST*
%ADD10O,1.700000X1.700000*%
%ADD11R,1.700000X1.700000*%
%ADD12C,0.500000*%
%ADD13C,0.508000*%
G04 APERTURE END LIST*
D10*
%TO.C,JPH3*%
X185420000Y-148590000D03*
X185420000Y-146050000D03*
X185420000Y-143510000D03*
D11*
X185420000Y-140970000D03*
%TD*%
D10*
%TO.C,JPH2*%
X182880000Y-143510000D03*
D11*
X182880000Y-140970000D03*
%TD*%
D10*
%TO.C,J4*%
X234950000Y-132080000D03*
X237490000Y-132080000D03*
X234950000Y-134620000D03*
X237490000Y-134620000D03*
X234950000Y-137160000D03*
X237490000Y-137160000D03*
X234950000Y-139700000D03*
D11*
X237490000Y-139700000D03*
%TD*%
D10*
%TO.C,JB1*%
X242570000Y-139700000D03*
X242570000Y-137160000D03*
X242570000Y-134620000D03*
D11*
X242570000Y-132080000D03*
%TD*%
D10*
%TO.C,J1*%
X264160000Y-147320000D03*
X261620000Y-147320000D03*
X259080000Y-147320000D03*
D11*
X256540000Y-147320000D03*
%TD*%
D10*
%TO.C,JB3*%
X157480000Y-135890000D03*
X157480000Y-133350000D03*
X157480000Y-130810000D03*
D11*
X157480000Y-128270000D03*
%TD*%
D10*
%TO.C,JB2*%
X157480000Y-148590000D03*
X157480000Y-146050000D03*
X157480000Y-143510000D03*
D11*
X157480000Y-140970000D03*
%TD*%
D12*
%TO.C,ANT1*%
X234530000Y-149690000D03*
X232930000Y-149690000D03*
X231330000Y-149690000D03*
X229730000Y-149690000D03*
X228130000Y-149690000D03*
X226530000Y-149690000D03*
X224930000Y-149690000D03*
X220130000Y-149690000D03*
X221720000Y-149690000D03*
%TD*%
D13*
%TO.C,RF_MCU1*%
X225094800Y-137464800D03*
X224307400Y-137464800D03*
X223520000Y-137464800D03*
X222732600Y-137464800D03*
X221945200Y-137464800D03*
X225094800Y-136677400D03*
X224307400Y-136677400D03*
X223520000Y-136677400D03*
X222732600Y-136677400D03*
X221945200Y-136677400D03*
X225094800Y-135890000D03*
X224307400Y-135890000D03*
X223520000Y-135890000D03*
X222732600Y-135890000D03*
X221945200Y-135890000D03*
X225094800Y-135102600D03*
X224307400Y-135102600D03*
X223520000Y-135102600D03*
X222732600Y-135102600D03*
X221945200Y-135102600D03*
X225094800Y-134315200D03*
X224307400Y-134315200D03*
X223520000Y-134315200D03*
X222732600Y-134315200D03*
X221945200Y-134315200D03*
%TD*%
D10*
%TO.C,SC1*%
X165100000Y-148590000D03*
D11*
X165100000Y-146050000D03*
%TD*%
D10*
%TO.C,J5*%
X210820000Y-144780000D03*
X208280000Y-144780000D03*
X210820000Y-142240000D03*
X208280000Y-142240000D03*
X210820000Y-139700000D03*
X208280000Y-139700000D03*
X210820000Y-137160000D03*
X208280000Y-137160000D03*
X210820000Y-134620000D03*
X208280000Y-134620000D03*
X210820000Y-132080000D03*
D11*
X208280000Y-132080000D03*
%TD*%
D10*
%TO.C,J3*%
X34290000Y-147320000D03*
X36830000Y-147320000D03*
X39370000Y-147320000D03*
D11*
X41910000Y-147320000D03*
%TD*%
D10*
%TO.C,J2*%
X139700000Y-147320000D03*
X137160000Y-147320000D03*
X134620000Y-147320000D03*
D11*
X132080000Y-147320000D03*
%TD*%
D10*
%TO.C,Bat1*%
X161290000Y-148590000D03*
D11*
X161290000Y-146050000D03*
%TD*%
M02*
