M48
; DRILL file {KiCad 5.1.7-a382d34a8~87~ubuntu18.04.1} date Mon Nov  2 14:58:02 2020
; FORMAT={-:-/ absolute / metric / decimal}
; #@! TF.CreationDate,2020-11-02T14:58:02+02:00
; #@! TF.GenerationSoftware,Kicad,Pcbnew,5.1.7-a382d34a8~87~ubuntu18.04.1
; #@! TF.FileFunction,Plated,1,2,PTH
FMAT,2
METRIC
T1C0.200
T2C0.254
T3C0.300
T4C0.400
T5C1.000
%
G90
G05
T1
X126.815Y-124.665
X126.815Y-125.915
X128.065Y-124.665
X128.065Y-125.915
X171.655Y-133.165
X171.655Y-134.415
X172.905Y-133.165
X172.905Y-134.415
T2
X221.945Y-134.315
X221.945Y-135.103
X221.945Y-135.89
X221.945Y-136.677
X221.945Y-137.465
X222.733Y-134.315
X222.733Y-135.103
X222.733Y-135.89
X222.733Y-136.677
X222.733Y-137.465
X223.52Y-134.315
X223.52Y-135.103
X223.52Y-135.89
X223.52Y-136.677
X223.52Y-137.465
X224.307Y-134.315
X224.307Y-135.103
X224.307Y-135.89
X224.307Y-136.677
X224.307Y-137.465
X225.095Y-134.315
X225.095Y-135.103
X225.095Y-135.89
X225.095Y-136.677
X225.095Y-137.465
X74.625Y-121.615
X74.625Y-122.403
X74.625Y-123.19
X74.625Y-123.977
X74.625Y-124.765
X75.413Y-121.615
X75.413Y-122.403
X75.413Y-123.19
X75.413Y-123.977
X75.413Y-124.765
X76.2Y-121.615
X76.2Y-122.403
X76.2Y-123.19
X76.2Y-123.977
X76.2Y-124.765
X76.987Y-121.615
X76.987Y-122.403
X76.987Y-123.19
X76.987Y-123.977
X76.987Y-124.765
X77.775Y-121.615
X77.775Y-122.403
X77.775Y-123.19
X77.775Y-123.977
X77.775Y-124.765
T3
X220.13Y-149.69
X221.72Y-149.69
X224.93Y-149.69
X226.53Y-149.69
X228.13Y-149.69
X229.73Y-149.69
X231.33Y-149.69
X232.93Y-149.69
X234.53Y-149.69
X65.19Y-109.39
X66.79Y-109.39
X68.39Y-109.39
X69.99Y-109.39
X71.59Y-109.39
X73.19Y-109.39
X74.79Y-109.39
X78.0Y-109.39
X79.59Y-109.39
T4
X26.67Y-147.32
X27.94Y-111.76
X45.72Y-113.03
X52.07Y-109.22
X55.88Y-113.03
X57.15Y-135.89
X57.875Y-117.565
X58.424Y-128.274
X59.69Y-116.84
X59.69Y-123.19
X60.122Y-126.443
X62.23Y-137.16
X63.5Y-109.22
X63.5Y-133.35
X66.04Y-129.54
X66.699Y-127.088
X68.58Y-113.03
X68.58Y-116.84
X68.6Y-122.175
X68.771Y-131.437
X69.325Y-129.013
X69.75Y-121.45
X69.926Y-128.196
X70.591Y-125.496
X72.39Y-120.65
X72.392Y-128.736
X72.93Y-127.758
X74.035Y-127.788
X74.93Y-115.57
X74.93Y-119.38
X76.275Y-128.18
X76.45Y-114.3
X77.462Y-118.102
X77.47Y-137.16
X79.464Y-119.398
X80.01Y-128.13
X80.01Y-138.43
X80.019Y-134.88
X81.28Y-119.38
X81.291Y-134.755
X82.13Y-124.208
X82.13Y-125.262
X82.55Y-109.22
X82.55Y-118.11
X82.55Y-121.92
X82.606Y-127.891
X83.28Y-140.43
X83.82Y-127.0
X83.82Y-137.16
X84.703Y-133.405
X85.09Y-121.92
X85.542Y-133.95
X86.36Y-134.62
X87.63Y-129.54
X87.63Y-134.62
X91.44Y-134.62
X92.71Y-109.22
X92.71Y-129.54
X93.98Y-120.65
X93.98Y-138.43
X95.25Y-133.35
X95.25Y-134.62
X99.06Y-138.43
X100.33Y-116.84
X101.6Y-128.27
X101.6Y-133.35
X103.661Y-136.433
X105.41Y-109.22
X105.41Y-125.73
X106.68Y-139.7
X110.49Y-140.97
X111.76Y-135.89
X116.84Y-120.65
X116.84Y-133.35
X116.84Y-140.97
X120.65Y-116.84
X120.65Y-120.65
X121.92Y-109.22
X121.92Y-124.46
X123.19Y-125.73
X123.19Y-139.7
X124.46Y-121.92
X124.48Y-129.146
X125.363Y-126.873
X125.73Y-109.22
X125.73Y-113.03
X125.845Y-130.14
X127.0Y-119.38
X128.749Y-128.115
X129.124Y-127.188
X130.345Y-127.72
X132.08Y-119.38
X132.08Y-127.0
X137.16Y-125.73
X138.43Y-129.54
X143.51Y-133.35
X144.78Y-116.84
X147.32Y-111.76
X147.32Y-147.32
X152.4Y-111.76
X152.4Y-147.32
X154.94Y-142.24
X156.21Y-125.73
X161.29Y-129.54
X162.56Y-133.35
X167.64Y-132.08
X167.64Y-139.7
X169.375Y-131.36
X170.596Y-131.892
X170.971Y-130.965
X172.72Y-139.7
X173.875Y-128.94
X173.99Y-146.05
X173.99Y-149.86
X174.357Y-132.207
X175.24Y-129.934
X175.26Y-137.16
X176.53Y-119.38
X176.53Y-133.35
X177.8Y-134.62
X177.8Y-149.86
X179.07Y-138.43
X179.07Y-142.24
X182.88Y-118.11
X182.88Y-125.73
X182.88Y-138.43
X187.96Y-123.19
X189.23Y-118.11
X193.04Y-119.38
X194.31Y-133.35
X194.31Y-149.86
X196.059Y-122.647
X198.12Y-125.73
X198.12Y-130.81
X199.39Y-142.24
X200.66Y-120.65
X204.47Y-124.46
X204.47Y-125.73
X205.74Y-120.65
X205.74Y-138.43
X207.01Y-129.54
X207.01Y-149.86
X208.28Y-124.46
X212.09Y-124.46
X212.09Y-129.54
X213.36Y-124.46
X214.178Y-125.13
X214.63Y-137.16
X215.017Y-125.675
X215.9Y-121.92
X215.9Y-132.08
X216.44Y-118.65
X217.114Y-131.189
X217.17Y-137.16
X217.17Y-140.97
X217.17Y-149.86
X217.59Y-133.818
X217.59Y-134.872
X218.429Y-124.325
X218.44Y-139.7
X219.701Y-124.2
X219.71Y-120.65
X219.71Y-130.95
X220.256Y-139.682
X222.25Y-121.92
X222.258Y-140.978
X223.27Y-144.78
X223.445Y-130.9
X224.79Y-139.7
X225.685Y-131.292
X226.79Y-131.322
X227.328Y-130.344
X227.33Y-138.43
X229.129Y-133.584
X229.794Y-130.884
X229.97Y-137.63
X230.395Y-130.067
X230.949Y-127.643
X231.12Y-136.905
X231.14Y-142.24
X231.14Y-146.05
X233.021Y-131.992
X233.68Y-129.54
X236.22Y-125.73
X236.22Y-149.86
X237.49Y-121.92
X239.598Y-132.637
X240.03Y-135.89
X240.03Y-142.24
X241.296Y-130.806
X241.845Y-141.515
X242.57Y-123.19
X243.84Y-146.05
X247.65Y-149.86
X254.0Y-146.05
X271.78Y-147.32
X273.05Y-111.76
T5
X57.15Y-119.38
X57.15Y-121.92
X57.15Y-124.46
X57.15Y-127.0
X182.88Y-140.97
X182.88Y-143.51
X132.08Y-147.32
X134.62Y-147.32
X137.16Y-147.32
X139.7Y-147.32
X138.43Y-110.49
X138.43Y-113.03
X208.28Y-132.08
X208.28Y-134.62
X208.28Y-137.16
X208.28Y-139.7
X208.28Y-142.24
X208.28Y-144.78
X210.82Y-132.08
X210.82Y-134.62
X210.82Y-137.16
X210.82Y-139.7
X210.82Y-142.24
X210.82Y-144.78
X165.1Y-146.05
X165.1Y-148.59
X35.56Y-111.76
X38.1Y-111.76
X40.64Y-111.76
X43.18Y-111.76
X161.29Y-146.05
X161.29Y-148.59
X62.23Y-119.38
X62.23Y-121.92
X62.23Y-124.46
X62.23Y-127.0
X64.77Y-119.38
X64.77Y-121.92
X64.77Y-124.46
X64.77Y-127.0
X234.95Y-132.08
X234.95Y-134.62
X234.95Y-137.16
X234.95Y-139.7
X237.49Y-132.08
X237.49Y-134.62
X237.49Y-137.16
X237.49Y-139.7
X114.3Y-110.49
X114.3Y-113.03
X114.3Y-115.57
X114.3Y-118.11
X157.48Y-128.27
X157.48Y-130.81
X157.48Y-133.35
X157.48Y-135.89
X256.54Y-147.32
X259.08Y-147.32
X261.62Y-147.32
X264.16Y-147.32
X160.02Y-111.76
X162.56Y-111.76
X165.1Y-111.76
X167.64Y-111.76
X157.48Y-140.97
X157.48Y-143.51
X157.48Y-146.05
X157.48Y-148.59
X134.62Y-110.49
X134.62Y-113.03
X88.9Y-114.3
X88.9Y-116.84
X88.9Y-119.38
X88.9Y-121.92
X88.9Y-124.46
X88.9Y-127.0
X91.44Y-114.3
X91.44Y-116.84
X91.44Y-119.38
X91.44Y-121.92
X91.44Y-124.46
X91.44Y-127.0
X116.84Y-115.57
X116.84Y-118.11
X242.57Y-132.08
X242.57Y-134.62
X242.57Y-137.16
X242.57Y-139.7
X257.81Y-111.76
X260.35Y-111.76
X262.89Y-111.76
X265.43Y-111.76
X185.42Y-140.97
X185.42Y-143.51
X185.42Y-146.05
X185.42Y-148.59
X142.24Y-110.49
X142.24Y-113.03
X142.24Y-115.57
X142.24Y-118.11
X142.24Y-123.19
X142.24Y-125.73
X142.24Y-128.27
X142.24Y-130.81
X34.29Y-147.32
X36.83Y-147.32
X39.37Y-147.32
X41.91Y-147.32
T0
M30
