%TF.GenerationSoftware,KiCad,Pcbnew,5.1.7-a382d34a8~87~ubuntu18.04.1*%
%TF.CreationDate,2020-11-02T20:34:46+02:00*%
%TF.ProjectId,sens-rf-1w-1-kicad,73656e73-2d72-4662-9d31-772d312d6b69,0.0*%
%TF.SameCoordinates,Original*%
%TF.FileFunction,Paste,Top*%
%TF.FilePolarity,Positive*%
%FSLAX46Y46*%
G04 Gerber Fmt 4.6, Leading zero omitted, Abs format (unit mm)*
G04 Created by KiCad (PCBNEW 5.1.7-a382d34a8~87~ubuntu18.04.1) date 2020-11-02 20:34:46*
%MOMM*%
%LPD*%
G01*
G04 APERTURE LIST*
%ADD10C,0.152400*%
%ADD11R,1.800000X2.500000*%
%ADD12R,1.300000X1.700000*%
%ADD13R,1.000000X1.000000*%
%ADD14R,1.050000X2.200000*%
%ADD15R,2.200000X1.050000*%
%ADD16R,2.000000X1.500000*%
%ADD17R,2.000000X3.800000*%
%ADD18R,1.600200X2.489200*%
%ADD19R,0.812800X0.457200*%
%ADD20R,4.500001X4.500001*%
%ADD21R,0.850000X0.280000*%
%ADD22R,0.280000X0.850000*%
%ADD23R,1.200000X1.400000*%
%ADD24R,2.800000X1.000000*%
%ADD25R,2.900000X5.400000*%
%ADD26R,1.700000X1.300000*%
G04 APERTURE END LIST*
D10*
%TO.C,RF_MCU1*%
X225885108Y-132514891D02*
X225654893Y-132514891D01*
X225654893Y-132514891D02*
X225654893Y-133315108D01*
X225654893Y-133315108D02*
X225885108Y-133315108D01*
X225885108Y-133315108D02*
X225885108Y-132514891D01*
X225385109Y-132514891D02*
X225154891Y-132514891D01*
X225154891Y-132514891D02*
X225154891Y-133315108D01*
X225154891Y-133315108D02*
X225385109Y-133315108D01*
X225385109Y-133315108D02*
X225385109Y-132514891D01*
X224885108Y-132514891D02*
X224654892Y-132514891D01*
X224654892Y-132514891D02*
X224654892Y-133315108D01*
X224654892Y-133315108D02*
X224885108Y-133315108D01*
X224885108Y-133315108D02*
X224885108Y-132514891D01*
X224385109Y-132514891D02*
X224154893Y-132514891D01*
X224154893Y-132514891D02*
X224154893Y-133315108D01*
X224154893Y-133315108D02*
X224385109Y-133315108D01*
X224385109Y-133315108D02*
X224385109Y-132514891D01*
X223885107Y-132514891D02*
X223654892Y-132514891D01*
X223654892Y-132514891D02*
X223654892Y-133315108D01*
X223654892Y-133315108D02*
X223885107Y-133315108D01*
X223885107Y-133315108D02*
X223885107Y-132514891D01*
X223385108Y-132514891D02*
X223154893Y-132514891D01*
X223154893Y-132514891D02*
X223154893Y-133315108D01*
X223154893Y-133315108D02*
X223385108Y-133315108D01*
X223385108Y-133315108D02*
X223385108Y-132514891D01*
X222885109Y-132514891D02*
X222654891Y-132514891D01*
X222654891Y-132514891D02*
X222654891Y-133315108D01*
X222654891Y-133315108D02*
X222885109Y-133315108D01*
X222885109Y-133315108D02*
X222885109Y-132514891D01*
X222385108Y-132514891D02*
X222154892Y-132514891D01*
X222154892Y-132514891D02*
X222154892Y-133315108D01*
X222154892Y-133315108D02*
X222385108Y-133315108D01*
X222385108Y-133315108D02*
X222385108Y-132514891D01*
X221885109Y-132514891D02*
X221654893Y-132514891D01*
X221654893Y-132514891D02*
X221654893Y-133315108D01*
X221654893Y-133315108D02*
X221885109Y-133315108D01*
X221885109Y-133315108D02*
X221885109Y-132514891D01*
X221385107Y-132514891D02*
X221154892Y-132514891D01*
X221154892Y-132514891D02*
X221154892Y-133315108D01*
X221154892Y-133315108D02*
X221385107Y-133315108D01*
X221385107Y-133315108D02*
X221385107Y-132514891D01*
X220945108Y-133524325D02*
X220144891Y-133524325D01*
X220144891Y-133524325D02*
X220144891Y-133754541D01*
X220144891Y-133754541D02*
X220945108Y-133754541D01*
X220945108Y-133754541D02*
X220945108Y-133524325D01*
X220945108Y-134024451D02*
X220144891Y-134024451D01*
X220144891Y-134024451D02*
X220144891Y-134254667D01*
X220144891Y-134254667D02*
X220945108Y-134254667D01*
X220945108Y-134254667D02*
X220945108Y-134024451D01*
X220945108Y-134524577D02*
X220144891Y-134524577D01*
X220144891Y-134524577D02*
X220144891Y-134754793D01*
X220144891Y-134754793D02*
X220945108Y-134754793D01*
X220945108Y-134754793D02*
X220945108Y-134524577D01*
X220945108Y-135024703D02*
X220144891Y-135024703D01*
X220144891Y-135024703D02*
X220144891Y-135254919D01*
X220144891Y-135254919D02*
X220945108Y-135254919D01*
X220945108Y-135254919D02*
X220945108Y-135024703D01*
X220945108Y-135524829D02*
X220144891Y-135524829D01*
X220144891Y-135524829D02*
X220144891Y-135755045D01*
X220144891Y-135755045D02*
X220945108Y-135755045D01*
X220945108Y-135755045D02*
X220945108Y-135524829D01*
X220945108Y-136024955D02*
X220144891Y-136024955D01*
X220144891Y-136024955D02*
X220144891Y-136255171D01*
X220144891Y-136255171D02*
X220945108Y-136255171D01*
X220945108Y-136255171D02*
X220945108Y-136024955D01*
X220945108Y-136525081D02*
X220144891Y-136525081D01*
X220144891Y-136525081D02*
X220144891Y-136755297D01*
X220144891Y-136755297D02*
X220945108Y-136755297D01*
X220945108Y-136755297D02*
X220945108Y-136525081D01*
X220945108Y-137025207D02*
X220144891Y-137025207D01*
X220144891Y-137025207D02*
X220144891Y-137255423D01*
X220144891Y-137255423D02*
X220945108Y-137255423D01*
X220945108Y-137255423D02*
X220945108Y-137025207D01*
X220945108Y-137525333D02*
X220144891Y-137525333D01*
X220144891Y-137525333D02*
X220144891Y-137755549D01*
X220144891Y-137755549D02*
X220945108Y-137755549D01*
X220945108Y-137755549D02*
X220945108Y-137525333D01*
X220945108Y-138025459D02*
X220144891Y-138025459D01*
X220144891Y-138025459D02*
X220144891Y-138255675D01*
X220144891Y-138255675D02*
X220945108Y-138255675D01*
X220945108Y-138255675D02*
X220945108Y-138025459D01*
X221385107Y-138464892D02*
X221154892Y-138464892D01*
X221154892Y-138464892D02*
X221154892Y-139265109D01*
X221154892Y-139265109D02*
X221385107Y-139265109D01*
X221385107Y-139265109D02*
X221385107Y-138464892D01*
X221885109Y-138464892D02*
X221654891Y-138464892D01*
X221654891Y-138464892D02*
X221654891Y-139265109D01*
X221654891Y-139265109D02*
X221885109Y-139265109D01*
X221885109Y-139265109D02*
X221885109Y-138464892D01*
X222385108Y-138464892D02*
X222154892Y-138464892D01*
X222154892Y-138464892D02*
X222154892Y-139265109D01*
X222154892Y-139265109D02*
X222385108Y-139265109D01*
X222385108Y-139265109D02*
X222385108Y-138464892D01*
X222885107Y-138464892D02*
X222654891Y-138464892D01*
X222654891Y-138464892D02*
X222654891Y-139265109D01*
X222654891Y-139265109D02*
X222885107Y-139265109D01*
X222885107Y-139265109D02*
X222885107Y-138464892D01*
X223385108Y-138464892D02*
X223154893Y-138464892D01*
X223154893Y-138464892D02*
X223154893Y-139265109D01*
X223154893Y-139265109D02*
X223385108Y-139265109D01*
X223385108Y-139265109D02*
X223385108Y-138464892D01*
X223885107Y-138464892D02*
X223654892Y-138464892D01*
X223654892Y-138464892D02*
X223654892Y-139265109D01*
X223654892Y-139265109D02*
X223885107Y-139265109D01*
X223885107Y-139265109D02*
X223885107Y-138464892D01*
X224385109Y-138464892D02*
X224154891Y-138464892D01*
X224154891Y-138464892D02*
X224154891Y-139265109D01*
X224154891Y-139265109D02*
X224385109Y-139265109D01*
X224385109Y-139265109D02*
X224385109Y-138464892D01*
X224885108Y-138464892D02*
X224654892Y-138464892D01*
X224654892Y-138464892D02*
X224654892Y-139265109D01*
X224654892Y-139265109D02*
X224885108Y-139265109D01*
X224885108Y-139265109D02*
X224885108Y-138464892D01*
X225385107Y-138464892D02*
X225154891Y-138464892D01*
X225154891Y-138464892D02*
X225154891Y-139265109D01*
X225154891Y-139265109D02*
X225385107Y-139265109D01*
X225385107Y-139265109D02*
X225385107Y-138464892D01*
X225885108Y-138464892D02*
X225654893Y-138464892D01*
X225654893Y-138464892D02*
X225654893Y-139265109D01*
X225654893Y-139265109D02*
X225885108Y-139265109D01*
X225885108Y-139265109D02*
X225885108Y-138464892D01*
X226895109Y-138025459D02*
X226094892Y-138025459D01*
X226094892Y-138025459D02*
X226094892Y-138255675D01*
X226094892Y-138255675D02*
X226895109Y-138255675D01*
X226895109Y-138255675D02*
X226895109Y-138025459D01*
X226895109Y-137525333D02*
X226094892Y-137525333D01*
X226094892Y-137525333D02*
X226094892Y-137755549D01*
X226094892Y-137755549D02*
X226895109Y-137755549D01*
X226895109Y-137755549D02*
X226895109Y-137525333D01*
X226895109Y-137025207D02*
X226094892Y-137025207D01*
X226094892Y-137025207D02*
X226094892Y-137255423D01*
X226094892Y-137255423D02*
X226895109Y-137255423D01*
X226895109Y-137255423D02*
X226895109Y-137025207D01*
X226895109Y-136525081D02*
X226094892Y-136525081D01*
X226094892Y-136525081D02*
X226094892Y-136755297D01*
X226094892Y-136755297D02*
X226895109Y-136755297D01*
X226895109Y-136755297D02*
X226895109Y-136525081D01*
X226895109Y-136024955D02*
X226094892Y-136024955D01*
X226094892Y-136024955D02*
X226094892Y-136255171D01*
X226094892Y-136255171D02*
X226895109Y-136255171D01*
X226895109Y-136255171D02*
X226895109Y-136024955D01*
X226895109Y-135524829D02*
X226094892Y-135524829D01*
X226094892Y-135524829D02*
X226094892Y-135755045D01*
X226094892Y-135755045D02*
X226895109Y-135755045D01*
X226895109Y-135755045D02*
X226895109Y-135524829D01*
X226895109Y-135024703D02*
X226094892Y-135024703D01*
X226094892Y-135024703D02*
X226094892Y-135254919D01*
X226094892Y-135254919D02*
X226895109Y-135254919D01*
X226895109Y-135254919D02*
X226895109Y-135024703D01*
X226895109Y-134524577D02*
X226094892Y-134524577D01*
X226094892Y-134524577D02*
X226094892Y-134754793D01*
X226094892Y-134754793D02*
X226895109Y-134754793D01*
X226895109Y-134754793D02*
X226895109Y-134524577D01*
X226895109Y-134024451D02*
X226094892Y-134024451D01*
X226094892Y-134024451D02*
X226094892Y-134254667D01*
X226094892Y-134254667D02*
X226895109Y-134254667D01*
X226895109Y-134254667D02*
X226895109Y-134024451D01*
X226895109Y-133524325D02*
X226094892Y-133524325D01*
X226094892Y-133524325D02*
X226094892Y-133754541D01*
X226094892Y-133754541D02*
X226895109Y-133754541D01*
X226895109Y-133754541D02*
X226895109Y-133524325D01*
X225695071Y-133714929D02*
X225194800Y-133714929D01*
X225194800Y-133714929D02*
X225194800Y-134073779D01*
X225194800Y-134073779D02*
X225194800Y-134073779D01*
X225194800Y-134073779D02*
X225336221Y-134215200D01*
X225336221Y-134215200D02*
X225336221Y-134215200D01*
X225336221Y-134215200D02*
X225695071Y-134215200D01*
X225695071Y-134215200D02*
X225695071Y-133714929D01*
X224994800Y-133714929D02*
X224407400Y-133714929D01*
X224407400Y-133714929D02*
X224407400Y-134073779D01*
X224407400Y-134073779D02*
X224407400Y-134073779D01*
X224407400Y-134073779D02*
X224548821Y-134215200D01*
X224548821Y-134215200D02*
X224548821Y-134215200D01*
X224548821Y-134215200D02*
X224853379Y-134215200D01*
X224853379Y-134215200D02*
X224853379Y-134215200D01*
X224853379Y-134215200D02*
X224994800Y-134073779D01*
X224994800Y-134073779D02*
X224994800Y-134073779D01*
X224994800Y-134073779D02*
X224994800Y-133714929D01*
X224207400Y-133714929D02*
X223620000Y-133714929D01*
X223620000Y-133714929D02*
X223620000Y-134073779D01*
X223620000Y-134073779D02*
X223620000Y-134073779D01*
X223620000Y-134073779D02*
X223761421Y-134215200D01*
X223761421Y-134215200D02*
X223761421Y-134215200D01*
X223761421Y-134215200D02*
X224065979Y-134215200D01*
X224065979Y-134215200D02*
X224065979Y-134215200D01*
X224065979Y-134215200D02*
X224207400Y-134073779D01*
X224207400Y-134073779D02*
X224207400Y-134073779D01*
X224207400Y-134073779D02*
X224207400Y-133714929D01*
X223420000Y-133714929D02*
X222832600Y-133714929D01*
X222832600Y-133714929D02*
X222832600Y-134073779D01*
X222832600Y-134073779D02*
X222832600Y-134073779D01*
X222832600Y-134073779D02*
X222974021Y-134215200D01*
X222974021Y-134215200D02*
X222974021Y-134215200D01*
X222974021Y-134215200D02*
X223278579Y-134215200D01*
X223278579Y-134215200D02*
X223278579Y-134215200D01*
X223278579Y-134215200D02*
X223420000Y-134073779D01*
X223420000Y-134073779D02*
X223420000Y-134073779D01*
X223420000Y-134073779D02*
X223420000Y-133714929D01*
X222632600Y-133714929D02*
X222045200Y-133714929D01*
X222045200Y-133714929D02*
X222045200Y-134073779D01*
X222045200Y-134073779D02*
X222045200Y-134073779D01*
X222045200Y-134073779D02*
X222186621Y-134215200D01*
X222186621Y-134215200D02*
X222186621Y-134215200D01*
X222186621Y-134215200D02*
X222491179Y-134215200D01*
X222491179Y-134215200D02*
X222491179Y-134215200D01*
X222491179Y-134215200D02*
X222632600Y-134073779D01*
X222632600Y-134073779D02*
X222632600Y-134073779D01*
X222632600Y-134073779D02*
X222632600Y-133714929D01*
X221845200Y-133714929D02*
X221344929Y-133714929D01*
X221344929Y-133714929D02*
X221344929Y-134215200D01*
X221344929Y-134215200D02*
X221703779Y-134215200D01*
X221703779Y-134215200D02*
X221703779Y-134215200D01*
X221703779Y-134215200D02*
X221845200Y-134073779D01*
X221845200Y-134073779D02*
X221845200Y-134073779D01*
X221845200Y-134073779D02*
X221845200Y-133714929D01*
X225695071Y-134415200D02*
X225336221Y-134415200D01*
X225336221Y-134415200D02*
X225336221Y-134415200D01*
X225336221Y-134415200D02*
X225194800Y-134556621D01*
X225194800Y-134556621D02*
X225194800Y-134556621D01*
X225194800Y-134556621D02*
X225194800Y-134861179D01*
X225194800Y-134861179D02*
X225194800Y-134861179D01*
X225194800Y-134861179D02*
X225336221Y-135002600D01*
X225336221Y-135002600D02*
X225336221Y-135002600D01*
X225336221Y-135002600D02*
X225695071Y-135002600D01*
X225695071Y-135002600D02*
X225695071Y-134415200D01*
X224994800Y-134556621D02*
X224994800Y-134556621D01*
X224994800Y-134556621D02*
X224853379Y-134415200D01*
X224853379Y-134415200D02*
X224853379Y-134415200D01*
X224853379Y-134415200D02*
X224548821Y-134415200D01*
X224548821Y-134415200D02*
X224548821Y-134415200D01*
X224548821Y-134415200D02*
X224407400Y-134556621D01*
X224407400Y-134556621D02*
X224407400Y-134556621D01*
X224407400Y-134556621D02*
X224407400Y-134861179D01*
X224407400Y-134861179D02*
X224407400Y-134861179D01*
X224407400Y-134861179D02*
X224548821Y-135002600D01*
X224548821Y-135002600D02*
X224548821Y-135002600D01*
X224548821Y-135002600D02*
X224853379Y-135002600D01*
X224853379Y-135002600D02*
X224853379Y-135002600D01*
X224853379Y-135002600D02*
X224994800Y-134861179D01*
X224994800Y-134861179D02*
X224994800Y-134861179D01*
X224994800Y-134861179D02*
X224994800Y-134556621D01*
X224207400Y-134556621D02*
X224207400Y-134556621D01*
X224207400Y-134556621D02*
X224065979Y-134415200D01*
X224065979Y-134415200D02*
X224065979Y-134415200D01*
X224065979Y-134415200D02*
X223761421Y-134415200D01*
X223761421Y-134415200D02*
X223761421Y-134415200D01*
X223761421Y-134415200D02*
X223620000Y-134556621D01*
X223620000Y-134556621D02*
X223620000Y-134556621D01*
X223620000Y-134556621D02*
X223620000Y-134861179D01*
X223620000Y-134861179D02*
X223620000Y-134861179D01*
X223620000Y-134861179D02*
X223761421Y-135002600D01*
X223761421Y-135002600D02*
X223761421Y-135002600D01*
X223761421Y-135002600D02*
X224065979Y-135002600D01*
X224065979Y-135002600D02*
X224065979Y-135002600D01*
X224065979Y-135002600D02*
X224207400Y-134861179D01*
X224207400Y-134861179D02*
X224207400Y-134861179D01*
X224207400Y-134861179D02*
X224207400Y-134556621D01*
X223420000Y-134556621D02*
X223420000Y-134556621D01*
X223420000Y-134556621D02*
X223278579Y-134415200D01*
X223278579Y-134415200D02*
X223278579Y-134415200D01*
X223278579Y-134415200D02*
X222974021Y-134415200D01*
X222974021Y-134415200D02*
X222974021Y-134415200D01*
X222974021Y-134415200D02*
X222832600Y-134556621D01*
X222832600Y-134556621D02*
X222832600Y-134556621D01*
X222832600Y-134556621D02*
X222832600Y-134861179D01*
X222832600Y-134861179D02*
X222832600Y-134861179D01*
X222832600Y-134861179D02*
X222974021Y-135002600D01*
X222974021Y-135002600D02*
X222974021Y-135002600D01*
X222974021Y-135002600D02*
X223278579Y-135002600D01*
X223278579Y-135002600D02*
X223278579Y-135002600D01*
X223278579Y-135002600D02*
X223420000Y-134861179D01*
X223420000Y-134861179D02*
X223420000Y-134861179D01*
X223420000Y-134861179D02*
X223420000Y-134556621D01*
X222632600Y-134556621D02*
X222632600Y-134556621D01*
X222632600Y-134556621D02*
X222491179Y-134415200D01*
X222491179Y-134415200D02*
X222491179Y-134415200D01*
X222491179Y-134415200D02*
X222186621Y-134415200D01*
X222186621Y-134415200D02*
X222186621Y-134415200D01*
X222186621Y-134415200D02*
X222045200Y-134556621D01*
X222045200Y-134556621D02*
X222045200Y-134556621D01*
X222045200Y-134556621D02*
X222045200Y-134861179D01*
X222045200Y-134861179D02*
X222045200Y-134861179D01*
X222045200Y-134861179D02*
X222186621Y-135002600D01*
X222186621Y-135002600D02*
X222186621Y-135002600D01*
X222186621Y-135002600D02*
X222491179Y-135002600D01*
X222491179Y-135002600D02*
X222491179Y-135002600D01*
X222491179Y-135002600D02*
X222632600Y-134861179D01*
X222632600Y-134861179D02*
X222632600Y-134861179D01*
X222632600Y-134861179D02*
X222632600Y-134556621D01*
X221845200Y-134556621D02*
X221845200Y-134556621D01*
X221845200Y-134556621D02*
X221703779Y-134415200D01*
X221703779Y-134415200D02*
X221703779Y-134415200D01*
X221703779Y-134415200D02*
X221344929Y-134415200D01*
X221344929Y-134415200D02*
X221344929Y-135002600D01*
X221344929Y-135002600D02*
X221703779Y-135002600D01*
X221703779Y-135002600D02*
X221703779Y-135002600D01*
X221703779Y-135002600D02*
X221845200Y-134861179D01*
X221845200Y-134861179D02*
X221845200Y-134861179D01*
X221845200Y-134861179D02*
X221845200Y-134556621D01*
X225695071Y-135202600D02*
X225336221Y-135202600D01*
X225336221Y-135202600D02*
X225336221Y-135202600D01*
X225336221Y-135202600D02*
X225194800Y-135344021D01*
X225194800Y-135344021D02*
X225194800Y-135344021D01*
X225194800Y-135344021D02*
X225194800Y-135648579D01*
X225194800Y-135648579D02*
X225194800Y-135648579D01*
X225194800Y-135648579D02*
X225336221Y-135790000D01*
X225336221Y-135790000D02*
X225336221Y-135790000D01*
X225336221Y-135790000D02*
X225695071Y-135790000D01*
X225695071Y-135790000D02*
X225695071Y-135202600D01*
X224994800Y-135344021D02*
X224994800Y-135344021D01*
X224994800Y-135344021D02*
X224853379Y-135202600D01*
X224853379Y-135202600D02*
X224853379Y-135202600D01*
X224853379Y-135202600D02*
X224548821Y-135202600D01*
X224548821Y-135202600D02*
X224548821Y-135202600D01*
X224548821Y-135202600D02*
X224407400Y-135344021D01*
X224407400Y-135344021D02*
X224407400Y-135344021D01*
X224407400Y-135344021D02*
X224407400Y-135648579D01*
X224407400Y-135648579D02*
X224407400Y-135648579D01*
X224407400Y-135648579D02*
X224548821Y-135790000D01*
X224548821Y-135790000D02*
X224548821Y-135790000D01*
X224548821Y-135790000D02*
X224853379Y-135790000D01*
X224853379Y-135790000D02*
X224853379Y-135790000D01*
X224853379Y-135790000D02*
X224994800Y-135648579D01*
X224994800Y-135648579D02*
X224994800Y-135648579D01*
X224994800Y-135648579D02*
X224994800Y-135344021D01*
X224207400Y-135344021D02*
X224207400Y-135344021D01*
X224207400Y-135344021D02*
X224065979Y-135202600D01*
X224065979Y-135202600D02*
X224065979Y-135202600D01*
X224065979Y-135202600D02*
X223761421Y-135202600D01*
X223761421Y-135202600D02*
X223761421Y-135202600D01*
X223761421Y-135202600D02*
X223620000Y-135344021D01*
X223620000Y-135344021D02*
X223620000Y-135344021D01*
X223620000Y-135344021D02*
X223620000Y-135648579D01*
X223620000Y-135648579D02*
X223620000Y-135648579D01*
X223620000Y-135648579D02*
X223761421Y-135790000D01*
X223761421Y-135790000D02*
X223761421Y-135790000D01*
X223761421Y-135790000D02*
X224065979Y-135790000D01*
X224065979Y-135790000D02*
X224065979Y-135790000D01*
X224065979Y-135790000D02*
X224207400Y-135648579D01*
X224207400Y-135648579D02*
X224207400Y-135648579D01*
X224207400Y-135648579D02*
X224207400Y-135344021D01*
X223420000Y-135344021D02*
X223420000Y-135344021D01*
X223420000Y-135344021D02*
X223278579Y-135202600D01*
X223278579Y-135202600D02*
X223278579Y-135202600D01*
X223278579Y-135202600D02*
X222974021Y-135202600D01*
X222974021Y-135202600D02*
X222974021Y-135202600D01*
X222974021Y-135202600D02*
X222832600Y-135344021D01*
X222832600Y-135344021D02*
X222832600Y-135344021D01*
X222832600Y-135344021D02*
X222832600Y-135648579D01*
X222832600Y-135648579D02*
X222832600Y-135648579D01*
X222832600Y-135648579D02*
X222974021Y-135790000D01*
X222974021Y-135790000D02*
X222974021Y-135790000D01*
X222974021Y-135790000D02*
X223278579Y-135790000D01*
X223278579Y-135790000D02*
X223278579Y-135790000D01*
X223278579Y-135790000D02*
X223420000Y-135648579D01*
X223420000Y-135648579D02*
X223420000Y-135648579D01*
X223420000Y-135648579D02*
X223420000Y-135344021D01*
X222632600Y-135344021D02*
X222632600Y-135344021D01*
X222632600Y-135344021D02*
X222491179Y-135202600D01*
X222491179Y-135202600D02*
X222491179Y-135202600D01*
X222491179Y-135202600D02*
X222186621Y-135202600D01*
X222186621Y-135202600D02*
X222186621Y-135202600D01*
X222186621Y-135202600D02*
X222045200Y-135344021D01*
X222045200Y-135344021D02*
X222045200Y-135344021D01*
X222045200Y-135344021D02*
X222045200Y-135648579D01*
X222045200Y-135648579D02*
X222045200Y-135648579D01*
X222045200Y-135648579D02*
X222186621Y-135790000D01*
X222186621Y-135790000D02*
X222186621Y-135790000D01*
X222186621Y-135790000D02*
X222491179Y-135790000D01*
X222491179Y-135790000D02*
X222491179Y-135790000D01*
X222491179Y-135790000D02*
X222632600Y-135648579D01*
X222632600Y-135648579D02*
X222632600Y-135648579D01*
X222632600Y-135648579D02*
X222632600Y-135344021D01*
X221845200Y-135344021D02*
X221845200Y-135344021D01*
X221845200Y-135344021D02*
X221703779Y-135202600D01*
X221703779Y-135202600D02*
X221703779Y-135202600D01*
X221703779Y-135202600D02*
X221344929Y-135202600D01*
X221344929Y-135202600D02*
X221344929Y-135790000D01*
X221344929Y-135790000D02*
X221703779Y-135790000D01*
X221703779Y-135790000D02*
X221703779Y-135790000D01*
X221703779Y-135790000D02*
X221845200Y-135648579D01*
X221845200Y-135648579D02*
X221845200Y-135648579D01*
X221845200Y-135648579D02*
X221845200Y-135344021D01*
X225695071Y-135990000D02*
X225336221Y-135990000D01*
X225336221Y-135990000D02*
X225336221Y-135990000D01*
X225336221Y-135990000D02*
X225194800Y-136131421D01*
X225194800Y-136131421D02*
X225194800Y-136131421D01*
X225194800Y-136131421D02*
X225194800Y-136435979D01*
X225194800Y-136435979D02*
X225194800Y-136435979D01*
X225194800Y-136435979D02*
X225336221Y-136577400D01*
X225336221Y-136577400D02*
X225336221Y-136577400D01*
X225336221Y-136577400D02*
X225695071Y-136577400D01*
X225695071Y-136577400D02*
X225695071Y-135990000D01*
X224994800Y-136131421D02*
X224994800Y-136131421D01*
X224994800Y-136131421D02*
X224853379Y-135990000D01*
X224853379Y-135990000D02*
X224853379Y-135990000D01*
X224853379Y-135990000D02*
X224548821Y-135990000D01*
X224548821Y-135990000D02*
X224548821Y-135990000D01*
X224548821Y-135990000D02*
X224407400Y-136131421D01*
X224407400Y-136131421D02*
X224407400Y-136131421D01*
X224407400Y-136131421D02*
X224407400Y-136435979D01*
X224407400Y-136435979D02*
X224407400Y-136435979D01*
X224407400Y-136435979D02*
X224548821Y-136577400D01*
X224548821Y-136577400D02*
X224548821Y-136577400D01*
X224548821Y-136577400D02*
X224853379Y-136577400D01*
X224853379Y-136577400D02*
X224853379Y-136577400D01*
X224853379Y-136577400D02*
X224994800Y-136435979D01*
X224994800Y-136435979D02*
X224994800Y-136435979D01*
X224994800Y-136435979D02*
X224994800Y-136131421D01*
X224207400Y-136131421D02*
X224207400Y-136131421D01*
X224207400Y-136131421D02*
X224065979Y-135990000D01*
X224065979Y-135990000D02*
X224065979Y-135990000D01*
X224065979Y-135990000D02*
X223761421Y-135990000D01*
X223761421Y-135990000D02*
X223761421Y-135990000D01*
X223761421Y-135990000D02*
X223620000Y-136131421D01*
X223620000Y-136131421D02*
X223620000Y-136131421D01*
X223620000Y-136131421D02*
X223620000Y-136435979D01*
X223620000Y-136435979D02*
X223620000Y-136435979D01*
X223620000Y-136435979D02*
X223761421Y-136577400D01*
X223761421Y-136577400D02*
X223761421Y-136577400D01*
X223761421Y-136577400D02*
X224065979Y-136577400D01*
X224065979Y-136577400D02*
X224065979Y-136577400D01*
X224065979Y-136577400D02*
X224207400Y-136435979D01*
X224207400Y-136435979D02*
X224207400Y-136435979D01*
X224207400Y-136435979D02*
X224207400Y-136131421D01*
X223420000Y-136131421D02*
X223420000Y-136131421D01*
X223420000Y-136131421D02*
X223278579Y-135990000D01*
X223278579Y-135990000D02*
X223278579Y-135990000D01*
X223278579Y-135990000D02*
X222974021Y-135990000D01*
X222974021Y-135990000D02*
X222974021Y-135990000D01*
X222974021Y-135990000D02*
X222832600Y-136131421D01*
X222832600Y-136131421D02*
X222832600Y-136131421D01*
X222832600Y-136131421D02*
X222832600Y-136435979D01*
X222832600Y-136435979D02*
X222832600Y-136435979D01*
X222832600Y-136435979D02*
X222974021Y-136577400D01*
X222974021Y-136577400D02*
X222974021Y-136577400D01*
X222974021Y-136577400D02*
X223278579Y-136577400D01*
X223278579Y-136577400D02*
X223278579Y-136577400D01*
X223278579Y-136577400D02*
X223420000Y-136435979D01*
X223420000Y-136435979D02*
X223420000Y-136435979D01*
X223420000Y-136435979D02*
X223420000Y-136131421D01*
X222632600Y-136131421D02*
X222632600Y-136131421D01*
X222632600Y-136131421D02*
X222491179Y-135990000D01*
X222491179Y-135990000D02*
X222491179Y-135990000D01*
X222491179Y-135990000D02*
X222186621Y-135990000D01*
X222186621Y-135990000D02*
X222186621Y-135990000D01*
X222186621Y-135990000D02*
X222045200Y-136131421D01*
X222045200Y-136131421D02*
X222045200Y-136131421D01*
X222045200Y-136131421D02*
X222045200Y-136435979D01*
X222045200Y-136435979D02*
X222045200Y-136435979D01*
X222045200Y-136435979D02*
X222186621Y-136577400D01*
X222186621Y-136577400D02*
X222186621Y-136577400D01*
X222186621Y-136577400D02*
X222491179Y-136577400D01*
X222491179Y-136577400D02*
X222491179Y-136577400D01*
X222491179Y-136577400D02*
X222632600Y-136435979D01*
X222632600Y-136435979D02*
X222632600Y-136435979D01*
X222632600Y-136435979D02*
X222632600Y-136131421D01*
X221845200Y-136131421D02*
X221845200Y-136131421D01*
X221845200Y-136131421D02*
X221703779Y-135990000D01*
X221703779Y-135990000D02*
X221703779Y-135990000D01*
X221703779Y-135990000D02*
X221344929Y-135990000D01*
X221344929Y-135990000D02*
X221344929Y-136577400D01*
X221344929Y-136577400D02*
X221703779Y-136577400D01*
X221703779Y-136577400D02*
X221703779Y-136577400D01*
X221703779Y-136577400D02*
X221845200Y-136435979D01*
X221845200Y-136435979D02*
X221845200Y-136435979D01*
X221845200Y-136435979D02*
X221845200Y-136131421D01*
X225695071Y-136777400D02*
X225336221Y-136777400D01*
X225336221Y-136777400D02*
X225336221Y-136777400D01*
X225336221Y-136777400D02*
X225194800Y-136918821D01*
X225194800Y-136918821D02*
X225194800Y-136918821D01*
X225194800Y-136918821D02*
X225194800Y-137223379D01*
X225194800Y-137223379D02*
X225194800Y-137223379D01*
X225194800Y-137223379D02*
X225336221Y-137364800D01*
X225336221Y-137364800D02*
X225336221Y-137364800D01*
X225336221Y-137364800D02*
X225695071Y-137364800D01*
X225695071Y-137364800D02*
X225695071Y-136777400D01*
X224994800Y-136918821D02*
X224994800Y-136918821D01*
X224994800Y-136918821D02*
X224853379Y-136777400D01*
X224853379Y-136777400D02*
X224853379Y-136777400D01*
X224853379Y-136777400D02*
X224548821Y-136777400D01*
X224548821Y-136777400D02*
X224548821Y-136777400D01*
X224548821Y-136777400D02*
X224407400Y-136918821D01*
X224407400Y-136918821D02*
X224407400Y-136918821D01*
X224407400Y-136918821D02*
X224407400Y-137223379D01*
X224407400Y-137223379D02*
X224407400Y-137223379D01*
X224407400Y-137223379D02*
X224548821Y-137364800D01*
X224548821Y-137364800D02*
X224548821Y-137364800D01*
X224548821Y-137364800D02*
X224853379Y-137364800D01*
X224853379Y-137364800D02*
X224853379Y-137364800D01*
X224853379Y-137364800D02*
X224994800Y-137223379D01*
X224994800Y-137223379D02*
X224994800Y-137223379D01*
X224994800Y-137223379D02*
X224994800Y-136918821D01*
X224207400Y-136918821D02*
X224207400Y-136918821D01*
X224207400Y-136918821D02*
X224065979Y-136777400D01*
X224065979Y-136777400D02*
X224065979Y-136777400D01*
X224065979Y-136777400D02*
X223761421Y-136777400D01*
X223761421Y-136777400D02*
X223761421Y-136777400D01*
X223761421Y-136777400D02*
X223620000Y-136918821D01*
X223620000Y-136918821D02*
X223620000Y-136918821D01*
X223620000Y-136918821D02*
X223620000Y-137223379D01*
X223620000Y-137223379D02*
X223620000Y-137223379D01*
X223620000Y-137223379D02*
X223761421Y-137364800D01*
X223761421Y-137364800D02*
X223761421Y-137364800D01*
X223761421Y-137364800D02*
X224065979Y-137364800D01*
X224065979Y-137364800D02*
X224065979Y-137364800D01*
X224065979Y-137364800D02*
X224207400Y-137223379D01*
X224207400Y-137223379D02*
X224207400Y-137223379D01*
X224207400Y-137223379D02*
X224207400Y-136918821D01*
X223420000Y-136918821D02*
X223420000Y-136918821D01*
X223420000Y-136918821D02*
X223278579Y-136777400D01*
X223278579Y-136777400D02*
X223278579Y-136777400D01*
X223278579Y-136777400D02*
X222974021Y-136777400D01*
X222974021Y-136777400D02*
X222974021Y-136777400D01*
X222974021Y-136777400D02*
X222832600Y-136918821D01*
X222832600Y-136918821D02*
X222832600Y-136918821D01*
X222832600Y-136918821D02*
X222832600Y-137223379D01*
X222832600Y-137223379D02*
X222832600Y-137223379D01*
X222832600Y-137223379D02*
X222974021Y-137364800D01*
X222974021Y-137364800D02*
X222974021Y-137364800D01*
X222974021Y-137364800D02*
X223278579Y-137364800D01*
X223278579Y-137364800D02*
X223278579Y-137364800D01*
X223278579Y-137364800D02*
X223420000Y-137223379D01*
X223420000Y-137223379D02*
X223420000Y-137223379D01*
X223420000Y-137223379D02*
X223420000Y-136918821D01*
X222632600Y-136918821D02*
X222632600Y-136918821D01*
X222632600Y-136918821D02*
X222491179Y-136777400D01*
X222491179Y-136777400D02*
X222491179Y-136777400D01*
X222491179Y-136777400D02*
X222186621Y-136777400D01*
X222186621Y-136777400D02*
X222186621Y-136777400D01*
X222186621Y-136777400D02*
X222045200Y-136918821D01*
X222045200Y-136918821D02*
X222045200Y-136918821D01*
X222045200Y-136918821D02*
X222045200Y-137223379D01*
X222045200Y-137223379D02*
X222045200Y-137223379D01*
X222045200Y-137223379D02*
X222186621Y-137364800D01*
X222186621Y-137364800D02*
X222186621Y-137364800D01*
X222186621Y-137364800D02*
X222491179Y-137364800D01*
X222491179Y-137364800D02*
X222491179Y-137364800D01*
X222491179Y-137364800D02*
X222632600Y-137223379D01*
X222632600Y-137223379D02*
X222632600Y-137223379D01*
X222632600Y-137223379D02*
X222632600Y-136918821D01*
X221845200Y-136918821D02*
X221845200Y-136918821D01*
X221845200Y-136918821D02*
X221703779Y-136777400D01*
X221703779Y-136777400D02*
X221703779Y-136777400D01*
X221703779Y-136777400D02*
X221344929Y-136777400D01*
X221344929Y-136777400D02*
X221344929Y-137364800D01*
X221344929Y-137364800D02*
X221703779Y-137364800D01*
X221703779Y-137364800D02*
X221703779Y-137364800D01*
X221703779Y-137364800D02*
X221845200Y-137223379D01*
X221845200Y-137223379D02*
X221845200Y-137223379D01*
X221845200Y-137223379D02*
X221845200Y-136918821D01*
X225695071Y-137564800D02*
X225336221Y-137564800D01*
X225336221Y-137564800D02*
X225336221Y-137564800D01*
X225336221Y-137564800D02*
X225194800Y-137706221D01*
X225194800Y-137706221D02*
X225194800Y-137706221D01*
X225194800Y-137706221D02*
X225194800Y-138065071D01*
X225194800Y-138065071D02*
X225695071Y-138065071D01*
X225695071Y-138065071D02*
X225695071Y-137564800D01*
X224994800Y-137706221D02*
X224994800Y-137706221D01*
X224994800Y-137706221D02*
X224853379Y-137564800D01*
X224853379Y-137564800D02*
X224853379Y-137564800D01*
X224853379Y-137564800D02*
X224548821Y-137564800D01*
X224548821Y-137564800D02*
X224548821Y-137564800D01*
X224548821Y-137564800D02*
X224407400Y-137706221D01*
X224407400Y-137706221D02*
X224407400Y-137706221D01*
X224407400Y-137706221D02*
X224407400Y-138065071D01*
X224407400Y-138065071D02*
X224994800Y-138065071D01*
X224994800Y-138065071D02*
X224994800Y-137706221D01*
X224207400Y-137706221D02*
X224207400Y-137706221D01*
X224207400Y-137706221D02*
X224065979Y-137564800D01*
X224065979Y-137564800D02*
X224065979Y-137564800D01*
X224065979Y-137564800D02*
X223761421Y-137564800D01*
X223761421Y-137564800D02*
X223761421Y-137564800D01*
X223761421Y-137564800D02*
X223620000Y-137706221D01*
X223620000Y-137706221D02*
X223620000Y-137706221D01*
X223620000Y-137706221D02*
X223620000Y-138065071D01*
X223620000Y-138065071D02*
X224207400Y-138065071D01*
X224207400Y-138065071D02*
X224207400Y-137706221D01*
X223420000Y-137706221D02*
X223420000Y-137706221D01*
X223420000Y-137706221D02*
X223278579Y-137564800D01*
X223278579Y-137564800D02*
X223278579Y-137564800D01*
X223278579Y-137564800D02*
X222974021Y-137564800D01*
X222974021Y-137564800D02*
X222974021Y-137564800D01*
X222974021Y-137564800D02*
X222832600Y-137706221D01*
X222832600Y-137706221D02*
X222832600Y-137706221D01*
X222832600Y-137706221D02*
X222832600Y-138065071D01*
X222832600Y-138065071D02*
X223420000Y-138065071D01*
X223420000Y-138065071D02*
X223420000Y-137706221D01*
X222632600Y-137706221D02*
X222632600Y-137706221D01*
X222632600Y-137706221D02*
X222491179Y-137564800D01*
X222491179Y-137564800D02*
X222491179Y-137564800D01*
X222491179Y-137564800D02*
X222186621Y-137564800D01*
X222186621Y-137564800D02*
X222186621Y-137564800D01*
X222186621Y-137564800D02*
X222045200Y-137706221D01*
X222045200Y-137706221D02*
X222045200Y-137706221D01*
X222045200Y-137706221D02*
X222045200Y-138065071D01*
X222045200Y-138065071D02*
X222632600Y-138065071D01*
X222632600Y-138065071D02*
X222632600Y-137706221D01*
X221845200Y-137706221D02*
X221845200Y-137706221D01*
X221845200Y-137706221D02*
X221703779Y-137564800D01*
X221703779Y-137564800D02*
X221703779Y-137564800D01*
X221703779Y-137564800D02*
X221344929Y-137564800D01*
X221344929Y-137564800D02*
X221344929Y-138065071D01*
X221344929Y-138065071D02*
X221845200Y-138065071D01*
X221845200Y-138065071D02*
X221845200Y-137706221D01*
%TD*%
D11*
%TO.C,DS1*%
X189230000Y-142297500D03*
X189230000Y-146297500D03*
%TD*%
%TO.C,F1*%
G36*
G01*
X192765000Y-135045000D02*
X193315000Y-135045000D01*
G75*
G02*
X193515000Y-135245000I0J-200000D01*
G01*
X193515000Y-135645000D01*
G75*
G02*
X193315000Y-135845000I-200000J0D01*
G01*
X192765000Y-135845000D01*
G75*
G02*
X192565000Y-135645000I0J200000D01*
G01*
X192565000Y-135245000D01*
G75*
G02*
X192765000Y-135045000I200000J0D01*
G01*
G37*
G36*
G01*
X192765000Y-133395000D02*
X193315000Y-133395000D01*
G75*
G02*
X193515000Y-133595000I0J-200000D01*
G01*
X193515000Y-133995000D01*
G75*
G02*
X193315000Y-134195000I-200000J0D01*
G01*
X192765000Y-134195000D01*
G75*
G02*
X192565000Y-133995000I0J200000D01*
G01*
X192565000Y-133595000D01*
G75*
G02*
X192765000Y-133395000I200000J0D01*
G01*
G37*
%TD*%
D12*
%TO.C,DZ2*%
X188920000Y-137160000D03*
X185420000Y-137160000D03*
%TD*%
D13*
%TO.C,ANT2*%
X180340000Y-146050000D03*
X180340000Y-149050000D03*
D14*
X178865000Y-147550000D03*
X181815000Y-147550000D03*
%TD*%
D13*
%TO.C,J7*%
X225830000Y-143715000D03*
X228830000Y-143715000D03*
D15*
X227330000Y-145190000D03*
X227330000Y-142240000D03*
%TD*%
D16*
%TO.C,U1*%
X194970000Y-139940000D03*
X194970000Y-144540000D03*
X194970000Y-142240000D03*
D17*
X201270000Y-142240000D03*
%TD*%
%TO.C,PwrHarv1*%
G36*
G01*
X172340000Y-134420000D02*
X172340000Y-134040000D01*
G75*
G02*
X172530000Y-133850000I190000J0D01*
G01*
X172910000Y-133850000D01*
G75*
G02*
X173100000Y-134040000I0J-190000D01*
G01*
X173100000Y-134420000D01*
G75*
G02*
X172910000Y-134610000I-190000J0D01*
G01*
X172530000Y-134610000D01*
G75*
G02*
X172340000Y-134420000I0J190000D01*
G01*
G37*
G36*
G01*
X172340000Y-133540000D02*
X172340000Y-133160000D01*
G75*
G02*
X172530000Y-132970000I190000J0D01*
G01*
X172910000Y-132970000D01*
G75*
G02*
X173100000Y-133160000I0J-190000D01*
G01*
X173100000Y-133540000D01*
G75*
G02*
X172910000Y-133730000I-190000J0D01*
G01*
X172530000Y-133730000D01*
G75*
G02*
X172340000Y-133540000I0J190000D01*
G01*
G37*
G36*
G01*
X171460000Y-134420000D02*
X171460000Y-134040000D01*
G75*
G02*
X171650000Y-133850000I190000J0D01*
G01*
X172030000Y-133850000D01*
G75*
G02*
X172220000Y-134040000I0J-190000D01*
G01*
X172220000Y-134420000D01*
G75*
G02*
X172030000Y-134610000I-190000J0D01*
G01*
X171650000Y-134610000D01*
G75*
G02*
X171460000Y-134420000I0J190000D01*
G01*
G37*
G36*
G01*
X171460000Y-133540000D02*
X171460000Y-133160000D01*
G75*
G02*
X171650000Y-132970000I190000J0D01*
G01*
X172030000Y-132970000D01*
G75*
G02*
X172220000Y-133160000I0J-190000D01*
G01*
X172220000Y-133540000D01*
G75*
G02*
X172030000Y-133730000I-190000J0D01*
G01*
X171650000Y-133730000D01*
G75*
G02*
X171460000Y-133540000I0J190000D01*
G01*
G37*
G36*
G01*
X171405000Y-132652500D02*
X171405000Y-132002500D01*
G75*
G02*
X171467500Y-131940000I62500J0D01*
G01*
X171592500Y-131940000D01*
G75*
G02*
X171655000Y-132002500I0J-62500D01*
G01*
X171655000Y-132652500D01*
G75*
G02*
X171592500Y-132715000I-62500J0D01*
G01*
X171467500Y-132715000D01*
G75*
G02*
X171405000Y-132652500I0J62500D01*
G01*
G37*
G36*
G01*
X171905000Y-132652500D02*
X171905000Y-132002500D01*
G75*
G02*
X171967500Y-131940000I62500J0D01*
G01*
X172092500Y-131940000D01*
G75*
G02*
X172155000Y-132002500I0J-62500D01*
G01*
X172155000Y-132652500D01*
G75*
G02*
X172092500Y-132715000I-62500J0D01*
G01*
X171967500Y-132715000D01*
G75*
G02*
X171905000Y-132652500I0J62500D01*
G01*
G37*
G36*
G01*
X172405000Y-132652500D02*
X172405000Y-132002500D01*
G75*
G02*
X172467500Y-131940000I62500J0D01*
G01*
X172592500Y-131940000D01*
G75*
G02*
X172655000Y-132002500I0J-62500D01*
G01*
X172655000Y-132652500D01*
G75*
G02*
X172592500Y-132715000I-62500J0D01*
G01*
X172467500Y-132715000D01*
G75*
G02*
X172405000Y-132652500I0J62500D01*
G01*
G37*
G36*
G01*
X172905000Y-132652500D02*
X172905000Y-132002500D01*
G75*
G02*
X172967500Y-131940000I62500J0D01*
G01*
X173092500Y-131940000D01*
G75*
G02*
X173155000Y-132002500I0J-62500D01*
G01*
X173155000Y-132652500D01*
G75*
G02*
X173092500Y-132715000I-62500J0D01*
G01*
X172967500Y-132715000D01*
G75*
G02*
X172905000Y-132652500I0J62500D01*
G01*
G37*
G36*
G01*
X173355000Y-133102500D02*
X173355000Y-132977500D01*
G75*
G02*
X173417500Y-132915000I62500J0D01*
G01*
X174067500Y-132915000D01*
G75*
G02*
X174130000Y-132977500I0J-62500D01*
G01*
X174130000Y-133102500D01*
G75*
G02*
X174067500Y-133165000I-62500J0D01*
G01*
X173417500Y-133165000D01*
G75*
G02*
X173355000Y-133102500I0J62500D01*
G01*
G37*
G36*
G01*
X173355000Y-133602500D02*
X173355000Y-133477500D01*
G75*
G02*
X173417500Y-133415000I62500J0D01*
G01*
X174067500Y-133415000D01*
G75*
G02*
X174130000Y-133477500I0J-62500D01*
G01*
X174130000Y-133602500D01*
G75*
G02*
X174067500Y-133665000I-62500J0D01*
G01*
X173417500Y-133665000D01*
G75*
G02*
X173355000Y-133602500I0J62500D01*
G01*
G37*
G36*
G01*
X173355000Y-134102500D02*
X173355000Y-133977500D01*
G75*
G02*
X173417500Y-133915000I62500J0D01*
G01*
X174067500Y-133915000D01*
G75*
G02*
X174130000Y-133977500I0J-62500D01*
G01*
X174130000Y-134102500D01*
G75*
G02*
X174067500Y-134165000I-62500J0D01*
G01*
X173417500Y-134165000D01*
G75*
G02*
X173355000Y-134102500I0J62500D01*
G01*
G37*
G36*
G01*
X173355000Y-134602500D02*
X173355000Y-134477500D01*
G75*
G02*
X173417500Y-134415000I62500J0D01*
G01*
X174067500Y-134415000D01*
G75*
G02*
X174130000Y-134477500I0J-62500D01*
G01*
X174130000Y-134602500D01*
G75*
G02*
X174067500Y-134665000I-62500J0D01*
G01*
X173417500Y-134665000D01*
G75*
G02*
X173355000Y-134602500I0J62500D01*
G01*
G37*
G36*
G01*
X172905000Y-135577500D02*
X172905000Y-134927500D01*
G75*
G02*
X172967500Y-134865000I62500J0D01*
G01*
X173092500Y-134865000D01*
G75*
G02*
X173155000Y-134927500I0J-62500D01*
G01*
X173155000Y-135577500D01*
G75*
G02*
X173092500Y-135640000I-62500J0D01*
G01*
X172967500Y-135640000D01*
G75*
G02*
X172905000Y-135577500I0J62500D01*
G01*
G37*
G36*
G01*
X172405000Y-135577500D02*
X172405000Y-134927500D01*
G75*
G02*
X172467500Y-134865000I62500J0D01*
G01*
X172592500Y-134865000D01*
G75*
G02*
X172655000Y-134927500I0J-62500D01*
G01*
X172655000Y-135577500D01*
G75*
G02*
X172592500Y-135640000I-62500J0D01*
G01*
X172467500Y-135640000D01*
G75*
G02*
X172405000Y-135577500I0J62500D01*
G01*
G37*
G36*
G01*
X171905000Y-135577500D02*
X171905000Y-134927500D01*
G75*
G02*
X171967500Y-134865000I62500J0D01*
G01*
X172092500Y-134865000D01*
G75*
G02*
X172155000Y-134927500I0J-62500D01*
G01*
X172155000Y-135577500D01*
G75*
G02*
X172092500Y-135640000I-62500J0D01*
G01*
X171967500Y-135640000D01*
G75*
G02*
X171905000Y-135577500I0J62500D01*
G01*
G37*
G36*
G01*
X171405000Y-135577500D02*
X171405000Y-134927500D01*
G75*
G02*
X171467500Y-134865000I62500J0D01*
G01*
X171592500Y-134865000D01*
G75*
G02*
X171655000Y-134927500I0J-62500D01*
G01*
X171655000Y-135577500D01*
G75*
G02*
X171592500Y-135640000I-62500J0D01*
G01*
X171467500Y-135640000D01*
G75*
G02*
X171405000Y-135577500I0J62500D01*
G01*
G37*
G36*
G01*
X170430000Y-134602500D02*
X170430000Y-134477500D01*
G75*
G02*
X170492500Y-134415000I62500J0D01*
G01*
X171142500Y-134415000D01*
G75*
G02*
X171205000Y-134477500I0J-62500D01*
G01*
X171205000Y-134602500D01*
G75*
G02*
X171142500Y-134665000I-62500J0D01*
G01*
X170492500Y-134665000D01*
G75*
G02*
X170430000Y-134602500I0J62500D01*
G01*
G37*
G36*
G01*
X170430000Y-134102500D02*
X170430000Y-133977500D01*
G75*
G02*
X170492500Y-133915000I62500J0D01*
G01*
X171142500Y-133915000D01*
G75*
G02*
X171205000Y-133977500I0J-62500D01*
G01*
X171205000Y-134102500D01*
G75*
G02*
X171142500Y-134165000I-62500J0D01*
G01*
X170492500Y-134165000D01*
G75*
G02*
X170430000Y-134102500I0J62500D01*
G01*
G37*
G36*
G01*
X170430000Y-133602500D02*
X170430000Y-133477500D01*
G75*
G02*
X170492500Y-133415000I62500J0D01*
G01*
X171142500Y-133415000D01*
G75*
G02*
X171205000Y-133477500I0J-62500D01*
G01*
X171205000Y-133602500D01*
G75*
G02*
X171142500Y-133665000I-62500J0D01*
G01*
X170492500Y-133665000D01*
G75*
G02*
X170430000Y-133602500I0J62500D01*
G01*
G37*
G36*
G01*
X170430000Y-133102500D02*
X170430000Y-132977500D01*
G75*
G02*
X170492500Y-132915000I62500J0D01*
G01*
X171142500Y-132915000D01*
G75*
G02*
X171205000Y-132977500I0J-62500D01*
G01*
X171205000Y-133102500D01*
G75*
G02*
X171142500Y-133165000I-62500J0D01*
G01*
X170492500Y-133165000D01*
G75*
G02*
X170430000Y-133102500I0J62500D01*
G01*
G37*
%TD*%
D18*
%TO.C,TH3*%
X26670000Y-147320000D03*
D19*
X25222200Y-148320001D03*
X25222200Y-147320000D03*
X25222200Y-146319999D03*
X28117800Y-146319999D03*
X28117800Y-147320000D03*
X28117800Y-148320001D03*
%TD*%
D18*
%TO.C,TH2*%
X147320000Y-147320000D03*
D19*
X148767800Y-146319999D03*
X148767800Y-147320000D03*
X148767800Y-148320001D03*
X145872200Y-148320001D03*
X145872200Y-147320000D03*
X145872200Y-146319999D03*
%TD*%
D18*
%TO.C,TH1*%
X271780000Y-147320000D03*
D19*
X273227800Y-146319999D03*
X273227800Y-147320000D03*
X273227800Y-148320001D03*
X270332200Y-148320001D03*
X270332200Y-147320000D03*
X270332200Y-146319999D03*
%TD*%
D20*
%TO.C,RF_MCU1*%
X223520000Y-135890000D03*
D21*
X226495000Y-133639433D03*
X226495000Y-134139559D03*
X226495000Y-134639685D03*
X226495000Y-135139811D03*
X226495000Y-135639937D03*
X226495000Y-136140063D03*
X226495000Y-136640189D03*
X226495000Y-137140315D03*
X226495000Y-137640441D03*
X226495000Y-138140567D03*
D22*
X225770001Y-138865000D03*
X225269999Y-138865000D03*
X224770000Y-138865000D03*
X224270001Y-138865000D03*
X223770000Y-138865000D03*
X223270000Y-138865000D03*
X222769999Y-138865000D03*
X222270000Y-138865000D03*
X221770001Y-138865000D03*
X221269999Y-138865000D03*
D21*
X220545000Y-138140567D03*
X220545000Y-137640441D03*
X220545000Y-137140315D03*
X220545000Y-136640189D03*
X220545000Y-136140063D03*
X220545000Y-135639937D03*
X220545000Y-135139811D03*
X220545000Y-134639685D03*
X220545000Y-134139559D03*
X220545000Y-133639433D03*
D22*
X221269999Y-132915000D03*
X221770001Y-132915000D03*
X222270000Y-132915000D03*
X222769999Y-132915000D03*
X223270000Y-132915000D03*
X223770000Y-132915000D03*
X224270001Y-132915000D03*
X224770000Y-132915000D03*
X225269999Y-132915000D03*
X225770001Y-132915000D03*
%TD*%
D23*
%TO.C,XTAL1*%
X214630000Y-146050000D03*
X214630000Y-143850000D03*
X216330000Y-143850000D03*
X216330000Y-146050000D03*
%TD*%
D24*
%TO.C,SW3*%
X203920000Y-122650000D03*
X198120000Y-122650000D03*
X203920000Y-118650000D03*
X198120000Y-118650000D03*
%TD*%
%TO.C,SW2*%
X234040000Y-122650000D03*
X228240000Y-122650000D03*
X234040000Y-118650000D03*
X228240000Y-118650000D03*
%TD*%
%TO.C,SW1*%
X218800000Y-122650000D03*
X213000000Y-122650000D03*
X218800000Y-118650000D03*
X213000000Y-118650000D03*
%TD*%
%TO.C,Ruv2*%
G36*
G01*
X171050000Y-138705000D02*
X171050000Y-138155000D01*
G75*
G02*
X171250000Y-137955000I200000J0D01*
G01*
X171650000Y-137955000D01*
G75*
G02*
X171850000Y-138155000I0J-200000D01*
G01*
X171850000Y-138705000D01*
G75*
G02*
X171650000Y-138905000I-200000J0D01*
G01*
X171250000Y-138905000D01*
G75*
G02*
X171050000Y-138705000I0J200000D01*
G01*
G37*
G36*
G01*
X169400000Y-138705000D02*
X169400000Y-138155000D01*
G75*
G02*
X169600000Y-137955000I200000J0D01*
G01*
X170000000Y-137955000D01*
G75*
G02*
X170200000Y-138155000I0J-200000D01*
G01*
X170200000Y-138705000D01*
G75*
G02*
X170000000Y-138905000I-200000J0D01*
G01*
X169600000Y-138905000D01*
G75*
G02*
X169400000Y-138705000I0J200000D01*
G01*
G37*
%TD*%
%TO.C,Ruv1*%
G36*
G01*
X175240000Y-138705000D02*
X175240000Y-138155000D01*
G75*
G02*
X175440000Y-137955000I200000J0D01*
G01*
X175840000Y-137955000D01*
G75*
G02*
X176040000Y-138155000I0J-200000D01*
G01*
X176040000Y-138705000D01*
G75*
G02*
X175840000Y-138905000I-200000J0D01*
G01*
X175440000Y-138905000D01*
G75*
G02*
X175240000Y-138705000I0J200000D01*
G01*
G37*
G36*
G01*
X173590000Y-138705000D02*
X173590000Y-138155000D01*
G75*
G02*
X173790000Y-137955000I200000J0D01*
G01*
X174190000Y-137955000D01*
G75*
G02*
X174390000Y-138155000I0J-200000D01*
G01*
X174390000Y-138705000D01*
G75*
G02*
X174190000Y-138905000I-200000J0D01*
G01*
X173790000Y-138905000D01*
G75*
G02*
X173590000Y-138705000I0J200000D01*
G01*
G37*
%TD*%
%TO.C,Rov3*%
G36*
G01*
X170605000Y-143785000D02*
X170605000Y-143235000D01*
G75*
G02*
X170805000Y-143035000I200000J0D01*
G01*
X171205000Y-143035000D01*
G75*
G02*
X171405000Y-143235000I0J-200000D01*
G01*
X171405000Y-143785000D01*
G75*
G02*
X171205000Y-143985000I-200000J0D01*
G01*
X170805000Y-143985000D01*
G75*
G02*
X170605000Y-143785000I0J200000D01*
G01*
G37*
G36*
G01*
X168955000Y-143785000D02*
X168955000Y-143235000D01*
G75*
G02*
X169155000Y-143035000I200000J0D01*
G01*
X169555000Y-143035000D01*
G75*
G02*
X169755000Y-143235000I0J-200000D01*
G01*
X169755000Y-143785000D01*
G75*
G02*
X169555000Y-143985000I-200000J0D01*
G01*
X169155000Y-143985000D01*
G75*
G02*
X168955000Y-143785000I0J200000D01*
G01*
G37*
%TD*%
%TO.C,Rov2*%
G36*
G01*
X174415000Y-143785000D02*
X174415000Y-143235000D01*
G75*
G02*
X174615000Y-143035000I200000J0D01*
G01*
X175015000Y-143035000D01*
G75*
G02*
X175215000Y-143235000I0J-200000D01*
G01*
X175215000Y-143785000D01*
G75*
G02*
X175015000Y-143985000I-200000J0D01*
G01*
X174615000Y-143985000D01*
G75*
G02*
X174415000Y-143785000I0J200000D01*
G01*
G37*
G36*
G01*
X172765000Y-143785000D02*
X172765000Y-143235000D01*
G75*
G02*
X172965000Y-143035000I200000J0D01*
G01*
X173365000Y-143035000D01*
G75*
G02*
X173565000Y-143235000I0J-200000D01*
G01*
X173565000Y-143785000D01*
G75*
G02*
X173365000Y-143985000I-200000J0D01*
G01*
X172965000Y-143985000D01*
G75*
G02*
X172765000Y-143785000I0J200000D01*
G01*
G37*
%TD*%
%TO.C,Rov1*%
G36*
G01*
X178225000Y-143785000D02*
X178225000Y-143235000D01*
G75*
G02*
X178425000Y-143035000I200000J0D01*
G01*
X178825000Y-143035000D01*
G75*
G02*
X179025000Y-143235000I0J-200000D01*
G01*
X179025000Y-143785000D01*
G75*
G02*
X178825000Y-143985000I-200000J0D01*
G01*
X178425000Y-143985000D01*
G75*
G02*
X178225000Y-143785000I0J200000D01*
G01*
G37*
G36*
G01*
X176575000Y-143785000D02*
X176575000Y-143235000D01*
G75*
G02*
X176775000Y-143035000I200000J0D01*
G01*
X177175000Y-143035000D01*
G75*
G02*
X177375000Y-143235000I0J-200000D01*
G01*
X177375000Y-143785000D01*
G75*
G02*
X177175000Y-143985000I-200000J0D01*
G01*
X176775000Y-143985000D01*
G75*
G02*
X176575000Y-143785000I0J200000D01*
G01*
G37*
%TD*%
%TO.C,Rok3*%
G36*
G01*
X171050000Y-141245000D02*
X171050000Y-140695000D01*
G75*
G02*
X171250000Y-140495000I200000J0D01*
G01*
X171650000Y-140495000D01*
G75*
G02*
X171850000Y-140695000I0J-200000D01*
G01*
X171850000Y-141245000D01*
G75*
G02*
X171650000Y-141445000I-200000J0D01*
G01*
X171250000Y-141445000D01*
G75*
G02*
X171050000Y-141245000I0J200000D01*
G01*
G37*
G36*
G01*
X169400000Y-141245000D02*
X169400000Y-140695000D01*
G75*
G02*
X169600000Y-140495000I200000J0D01*
G01*
X170000000Y-140495000D01*
G75*
G02*
X170200000Y-140695000I0J-200000D01*
G01*
X170200000Y-141245000D01*
G75*
G02*
X170000000Y-141445000I-200000J0D01*
G01*
X169600000Y-141445000D01*
G75*
G02*
X169400000Y-141245000I0J200000D01*
G01*
G37*
%TD*%
%TO.C,Rok2*%
G36*
G01*
X174860000Y-141245000D02*
X174860000Y-140695000D01*
G75*
G02*
X175060000Y-140495000I200000J0D01*
G01*
X175460000Y-140495000D01*
G75*
G02*
X175660000Y-140695000I0J-200000D01*
G01*
X175660000Y-141245000D01*
G75*
G02*
X175460000Y-141445000I-200000J0D01*
G01*
X175060000Y-141445000D01*
G75*
G02*
X174860000Y-141245000I0J200000D01*
G01*
G37*
G36*
G01*
X173210000Y-141245000D02*
X173210000Y-140695000D01*
G75*
G02*
X173410000Y-140495000I200000J0D01*
G01*
X173810000Y-140495000D01*
G75*
G02*
X174010000Y-140695000I0J-200000D01*
G01*
X174010000Y-141245000D01*
G75*
G02*
X173810000Y-141445000I-200000J0D01*
G01*
X173410000Y-141445000D01*
G75*
G02*
X173210000Y-141245000I0J200000D01*
G01*
G37*
%TD*%
%TO.C,Rok1*%
G36*
G01*
X179050000Y-141245000D02*
X179050000Y-140695000D01*
G75*
G02*
X179250000Y-140495000I200000J0D01*
G01*
X179650000Y-140495000D01*
G75*
G02*
X179850000Y-140695000I0J-200000D01*
G01*
X179850000Y-141245000D01*
G75*
G02*
X179650000Y-141445000I-200000J0D01*
G01*
X179250000Y-141445000D01*
G75*
G02*
X179050000Y-141245000I0J200000D01*
G01*
G37*
G36*
G01*
X177400000Y-141245000D02*
X177400000Y-140695000D01*
G75*
G02*
X177600000Y-140495000I200000J0D01*
G01*
X178000000Y-140495000D01*
G75*
G02*
X178200000Y-140695000I0J-200000D01*
G01*
X178200000Y-141245000D01*
G75*
G02*
X178000000Y-141445000I-200000J0D01*
G01*
X177600000Y-141445000D01*
G75*
G02*
X177400000Y-141245000I0J200000D01*
G01*
G37*
%TD*%
%TO.C,Roc3*%
G36*
G01*
X165375000Y-140100000D02*
X164825000Y-140100000D01*
G75*
G02*
X164625000Y-139900000I0J200000D01*
G01*
X164625000Y-139500000D01*
G75*
G02*
X164825000Y-139300000I200000J0D01*
G01*
X165375000Y-139300000D01*
G75*
G02*
X165575000Y-139500000I0J-200000D01*
G01*
X165575000Y-139900000D01*
G75*
G02*
X165375000Y-140100000I-200000J0D01*
G01*
G37*
G36*
G01*
X165375000Y-141750000D02*
X164825000Y-141750000D01*
G75*
G02*
X164625000Y-141550000I0J200000D01*
G01*
X164625000Y-141150000D01*
G75*
G02*
X164825000Y-140950000I200000J0D01*
G01*
X165375000Y-140950000D01*
G75*
G02*
X165575000Y-141150000I0J-200000D01*
G01*
X165575000Y-141550000D01*
G75*
G02*
X165375000Y-141750000I-200000J0D01*
G01*
G37*
%TD*%
%TO.C,Roc2*%
G36*
G01*
X165375000Y-136290000D02*
X164825000Y-136290000D01*
G75*
G02*
X164625000Y-136090000I0J200000D01*
G01*
X164625000Y-135690000D01*
G75*
G02*
X164825000Y-135490000I200000J0D01*
G01*
X165375000Y-135490000D01*
G75*
G02*
X165575000Y-135690000I0J-200000D01*
G01*
X165575000Y-136090000D01*
G75*
G02*
X165375000Y-136290000I-200000J0D01*
G01*
G37*
G36*
G01*
X165375000Y-137940000D02*
X164825000Y-137940000D01*
G75*
G02*
X164625000Y-137740000I0J200000D01*
G01*
X164625000Y-137340000D01*
G75*
G02*
X164825000Y-137140000I200000J0D01*
G01*
X165375000Y-137140000D01*
G75*
G02*
X165575000Y-137340000I0J-200000D01*
G01*
X165575000Y-137740000D01*
G75*
G02*
X165375000Y-137940000I-200000J0D01*
G01*
G37*
%TD*%
%TO.C,Roc1*%
G36*
G01*
X165375000Y-132480000D02*
X164825000Y-132480000D01*
G75*
G02*
X164625000Y-132280000I0J200000D01*
G01*
X164625000Y-131880000D01*
G75*
G02*
X164825000Y-131680000I200000J0D01*
G01*
X165375000Y-131680000D01*
G75*
G02*
X165575000Y-131880000I0J-200000D01*
G01*
X165575000Y-132280000D01*
G75*
G02*
X165375000Y-132480000I-200000J0D01*
G01*
G37*
G36*
G01*
X165375000Y-134130000D02*
X164825000Y-134130000D01*
G75*
G02*
X164625000Y-133930000I0J200000D01*
G01*
X164625000Y-133530000D01*
G75*
G02*
X164825000Y-133330000I200000J0D01*
G01*
X165375000Y-133330000D01*
G75*
G02*
X165575000Y-133530000I0J-200000D01*
G01*
X165575000Y-133930000D01*
G75*
G02*
X165375000Y-134130000I-200000J0D01*
G01*
G37*
%TD*%
%TO.C,R_SW2*%
G36*
G01*
X224390000Y-123465000D02*
X224390000Y-122915000D01*
G75*
G02*
X224590000Y-122715000I200000J0D01*
G01*
X224990000Y-122715000D01*
G75*
G02*
X225190000Y-122915000I0J-200000D01*
G01*
X225190000Y-123465000D01*
G75*
G02*
X224990000Y-123665000I-200000J0D01*
G01*
X224590000Y-123665000D01*
G75*
G02*
X224390000Y-123465000I0J200000D01*
G01*
G37*
G36*
G01*
X222740000Y-123465000D02*
X222740000Y-122915000D01*
G75*
G02*
X222940000Y-122715000I200000J0D01*
G01*
X223340000Y-122715000D01*
G75*
G02*
X223540000Y-122915000I0J-200000D01*
G01*
X223540000Y-123465000D01*
G75*
G02*
X223340000Y-123665000I-200000J0D01*
G01*
X222940000Y-123665000D01*
G75*
G02*
X222740000Y-123465000I0J200000D01*
G01*
G37*
%TD*%
%TO.C,R_SW1*%
G36*
G01*
X224390000Y-120925000D02*
X224390000Y-120375000D01*
G75*
G02*
X224590000Y-120175000I200000J0D01*
G01*
X224990000Y-120175000D01*
G75*
G02*
X225190000Y-120375000I0J-200000D01*
G01*
X225190000Y-120925000D01*
G75*
G02*
X224990000Y-121125000I-200000J0D01*
G01*
X224590000Y-121125000D01*
G75*
G02*
X224390000Y-120925000I0J200000D01*
G01*
G37*
G36*
G01*
X222740000Y-120925000D02*
X222740000Y-120375000D01*
G75*
G02*
X222940000Y-120175000I200000J0D01*
G01*
X223340000Y-120175000D01*
G75*
G02*
X223540000Y-120375000I0J-200000D01*
G01*
X223540000Y-120925000D01*
G75*
G02*
X223340000Y-121125000I-200000J0D01*
G01*
X222940000Y-121125000D01*
G75*
G02*
X222740000Y-120925000I0J200000D01*
G01*
G37*
%TD*%
%TO.C,R_R1*%
G36*
G01*
X238360000Y-119655000D02*
X238360000Y-119105000D01*
G75*
G02*
X238560000Y-118905000I200000J0D01*
G01*
X238960000Y-118905000D01*
G75*
G02*
X239160000Y-119105000I0J-200000D01*
G01*
X239160000Y-119655000D01*
G75*
G02*
X238960000Y-119855000I-200000J0D01*
G01*
X238560000Y-119855000D01*
G75*
G02*
X238360000Y-119655000I0J200000D01*
G01*
G37*
G36*
G01*
X236710000Y-119655000D02*
X236710000Y-119105000D01*
G75*
G02*
X236910000Y-118905000I200000J0D01*
G01*
X237310000Y-118905000D01*
G75*
G02*
X237510000Y-119105000I0J-200000D01*
G01*
X237510000Y-119655000D01*
G75*
G02*
X237310000Y-119855000I-200000J0D01*
G01*
X236910000Y-119855000D01*
G75*
G02*
X236710000Y-119655000I0J200000D01*
G01*
G37*
%TD*%
%TO.C,R_P1*%
G36*
G01*
X203475000Y-136290000D02*
X202925000Y-136290000D01*
G75*
G02*
X202725000Y-136090000I0J200000D01*
G01*
X202725000Y-135690000D01*
G75*
G02*
X202925000Y-135490000I200000J0D01*
G01*
X203475000Y-135490000D01*
G75*
G02*
X203675000Y-135690000I0J-200000D01*
G01*
X203675000Y-136090000D01*
G75*
G02*
X203475000Y-136290000I-200000J0D01*
G01*
G37*
G36*
G01*
X203475000Y-137940000D02*
X202925000Y-137940000D01*
G75*
G02*
X202725000Y-137740000I0J200000D01*
G01*
X202725000Y-137340000D01*
G75*
G02*
X202925000Y-137140000I200000J0D01*
G01*
X203475000Y-137140000D01*
G75*
G02*
X203675000Y-137340000I0J-200000D01*
G01*
X203675000Y-137740000D01*
G75*
G02*
X203475000Y-137940000I-200000J0D01*
G01*
G37*
%TD*%
%TO.C,R_LD1*%
G36*
G01*
X193060000Y-122915000D02*
X193060000Y-123465000D01*
G75*
G02*
X192860000Y-123665000I-200000J0D01*
G01*
X192460000Y-123665000D01*
G75*
G02*
X192260000Y-123465000I0J200000D01*
G01*
X192260000Y-122915000D01*
G75*
G02*
X192460000Y-122715000I200000J0D01*
G01*
X192860000Y-122715000D01*
G75*
G02*
X193060000Y-122915000I0J-200000D01*
G01*
G37*
G36*
G01*
X194710000Y-122915000D02*
X194710000Y-123465000D01*
G75*
G02*
X194510000Y-123665000I-200000J0D01*
G01*
X194110000Y-123665000D01*
G75*
G02*
X193910000Y-123465000I0J200000D01*
G01*
X193910000Y-122915000D01*
G75*
G02*
X194110000Y-122715000I200000J0D01*
G01*
X194510000Y-122715000D01*
G75*
G02*
X194710000Y-122915000I0J-200000D01*
G01*
G37*
%TD*%
%TO.C,R_G1*%
G36*
G01*
X209150000Y-119655000D02*
X209150000Y-119105000D01*
G75*
G02*
X209350000Y-118905000I200000J0D01*
G01*
X209750000Y-118905000D01*
G75*
G02*
X209950000Y-119105000I0J-200000D01*
G01*
X209950000Y-119655000D01*
G75*
G02*
X209750000Y-119855000I-200000J0D01*
G01*
X209350000Y-119855000D01*
G75*
G02*
X209150000Y-119655000I0J200000D01*
G01*
G37*
G36*
G01*
X207500000Y-119655000D02*
X207500000Y-119105000D01*
G75*
G02*
X207700000Y-118905000I200000J0D01*
G01*
X208100000Y-118905000D01*
G75*
G02*
X208300000Y-119105000I0J-200000D01*
G01*
X208300000Y-119655000D01*
G75*
G02*
X208100000Y-119855000I-200000J0D01*
G01*
X207700000Y-119855000D01*
G75*
G02*
X207500000Y-119655000I0J200000D01*
G01*
G37*
%TD*%
%TO.C,R301*%
G36*
G01*
X229000000Y-139425000D02*
X229000000Y-139975000D01*
G75*
G02*
X228800000Y-140175000I-200000J0D01*
G01*
X228400000Y-140175000D01*
G75*
G02*
X228200000Y-139975000I0J200000D01*
G01*
X228200000Y-139425000D01*
G75*
G02*
X228400000Y-139225000I200000J0D01*
G01*
X228800000Y-139225000D01*
G75*
G02*
X229000000Y-139425000I0J-200000D01*
G01*
G37*
G36*
G01*
X230650000Y-139425000D02*
X230650000Y-139975000D01*
G75*
G02*
X230450000Y-140175000I-200000J0D01*
G01*
X230050000Y-140175000D01*
G75*
G02*
X229850000Y-139975000I0J200000D01*
G01*
X229850000Y-139425000D01*
G75*
G02*
X230050000Y-139225000I200000J0D01*
G01*
X230450000Y-139225000D01*
G75*
G02*
X230650000Y-139425000I0J-200000D01*
G01*
G37*
%TD*%
%TO.C,R4*%
G36*
G01*
X220960000Y-129815000D02*
X220960000Y-129265000D01*
G75*
G02*
X221160000Y-129065000I200000J0D01*
G01*
X221560000Y-129065000D01*
G75*
G02*
X221760000Y-129265000I0J-200000D01*
G01*
X221760000Y-129815000D01*
G75*
G02*
X221560000Y-130015000I-200000J0D01*
G01*
X221160000Y-130015000D01*
G75*
G02*
X220960000Y-129815000I0J200000D01*
G01*
G37*
G36*
G01*
X219310000Y-129815000D02*
X219310000Y-129265000D01*
G75*
G02*
X219510000Y-129065000I200000J0D01*
G01*
X219910000Y-129065000D01*
G75*
G02*
X220110000Y-129265000I0J-200000D01*
G01*
X220110000Y-129815000D01*
G75*
G02*
X219910000Y-130015000I-200000J0D01*
G01*
X219510000Y-130015000D01*
G75*
G02*
X219310000Y-129815000I0J200000D01*
G01*
G37*
%TD*%
%TO.C,R3*%
G36*
G01*
X30819776Y-147710301D02*
X31369776Y-147710301D01*
G75*
G02*
X31569776Y-147910301I0J-200000D01*
G01*
X31569776Y-148310301D01*
G75*
G02*
X31369776Y-148510301I-200000J0D01*
G01*
X30819776Y-148510301D01*
G75*
G02*
X30619776Y-148310301I0J200000D01*
G01*
X30619776Y-147910301D01*
G75*
G02*
X30819776Y-147710301I200000J0D01*
G01*
G37*
G36*
G01*
X30819776Y-146060301D02*
X31369776Y-146060301D01*
G75*
G02*
X31569776Y-146260301I0J-200000D01*
G01*
X31569776Y-146660301D01*
G75*
G02*
X31369776Y-146860301I-200000J0D01*
G01*
X30819776Y-146860301D01*
G75*
G02*
X30619776Y-146660301I0J200000D01*
G01*
X30619776Y-146260301D01*
G75*
G02*
X30819776Y-146060301I200000J0D01*
G01*
G37*
%TD*%
%TO.C,R2*%
G36*
G01*
X142960808Y-146691275D02*
X142410808Y-146691275D01*
G75*
G02*
X142210808Y-146491275I0J200000D01*
G01*
X142210808Y-146091275D01*
G75*
G02*
X142410808Y-145891275I200000J0D01*
G01*
X142960808Y-145891275D01*
G75*
G02*
X143160808Y-146091275I0J-200000D01*
G01*
X143160808Y-146491275D01*
G75*
G02*
X142960808Y-146691275I-200000J0D01*
G01*
G37*
G36*
G01*
X142960808Y-148341275D02*
X142410808Y-148341275D01*
G75*
G02*
X142210808Y-148141275I0J200000D01*
G01*
X142210808Y-147741275D01*
G75*
G02*
X142410808Y-147541275I200000J0D01*
G01*
X142960808Y-147541275D01*
G75*
G02*
X143160808Y-147741275I0J-200000D01*
G01*
X143160808Y-148141275D01*
G75*
G02*
X142960808Y-148341275I-200000J0D01*
G01*
G37*
%TD*%
%TO.C,R1*%
G36*
G01*
X266569269Y-147266847D02*
X266019269Y-147266847D01*
G75*
G02*
X265819269Y-147066847I0J200000D01*
G01*
X265819269Y-146666847D01*
G75*
G02*
X266019269Y-146466847I200000J0D01*
G01*
X266569269Y-146466847D01*
G75*
G02*
X266769269Y-146666847I0J-200000D01*
G01*
X266769269Y-147066847D01*
G75*
G02*
X266569269Y-147266847I-200000J0D01*
G01*
G37*
G36*
G01*
X266569269Y-148916847D02*
X266019269Y-148916847D01*
G75*
G02*
X265819269Y-148716847I0J200000D01*
G01*
X265819269Y-148316847D01*
G75*
G02*
X266019269Y-148116847I200000J0D01*
G01*
X266569269Y-148116847D01*
G75*
G02*
X266769269Y-148316847I0J-200000D01*
G01*
X266769269Y-148716847D01*
G75*
G02*
X266569269Y-148916847I-200000J0D01*
G01*
G37*
%TD*%
%TO.C,LED_R1*%
G36*
G01*
X239110000Y-123446250D02*
X239110000Y-122933750D01*
G75*
G02*
X239328750Y-122715000I218750J0D01*
G01*
X239766250Y-122715000D01*
G75*
G02*
X239985000Y-122933750I0J-218750D01*
G01*
X239985000Y-123446250D01*
G75*
G02*
X239766250Y-123665000I-218750J0D01*
G01*
X239328750Y-123665000D01*
G75*
G02*
X239110000Y-123446250I0J218750D01*
G01*
G37*
G36*
G01*
X237535000Y-123446250D02*
X237535000Y-122933750D01*
G75*
G02*
X237753750Y-122715000I218750J0D01*
G01*
X238191250Y-122715000D01*
G75*
G02*
X238410000Y-122933750I0J-218750D01*
G01*
X238410000Y-123446250D01*
G75*
G02*
X238191250Y-123665000I-218750J0D01*
G01*
X237753750Y-123665000D01*
G75*
G02*
X237535000Y-123446250I0J218750D01*
G01*
G37*
%TD*%
%TO.C,LED_P1*%
G36*
G01*
X202947229Y-134052810D02*
X203459729Y-134052810D01*
G75*
G02*
X203678479Y-134271560I0J-218750D01*
G01*
X203678479Y-134709060D01*
G75*
G02*
X203459729Y-134927810I-218750J0D01*
G01*
X202947229Y-134927810D01*
G75*
G02*
X202728479Y-134709060I0J218750D01*
G01*
X202728479Y-134271560D01*
G75*
G02*
X202947229Y-134052810I218750J0D01*
G01*
G37*
G36*
G01*
X202947229Y-132477810D02*
X203459729Y-132477810D01*
G75*
G02*
X203678479Y-132696560I0J-218750D01*
G01*
X203678479Y-133134060D01*
G75*
G02*
X203459729Y-133352810I-218750J0D01*
G01*
X202947229Y-133352810D01*
G75*
G02*
X202728479Y-133134060I0J218750D01*
G01*
X202728479Y-132696560D01*
G75*
G02*
X202947229Y-132477810I218750J0D01*
G01*
G37*
%TD*%
%TO.C,LED_G1*%
G36*
G01*
X209112500Y-123446250D02*
X209112500Y-122933750D01*
G75*
G02*
X209331250Y-122715000I218750J0D01*
G01*
X209768750Y-122715000D01*
G75*
G02*
X209987500Y-122933750I0J-218750D01*
G01*
X209987500Y-123446250D01*
G75*
G02*
X209768750Y-123665000I-218750J0D01*
G01*
X209331250Y-123665000D01*
G75*
G02*
X209112500Y-123446250I0J218750D01*
G01*
G37*
G36*
G01*
X207537500Y-123446250D02*
X207537500Y-122933750D01*
G75*
G02*
X207756250Y-122715000I218750J0D01*
G01*
X208193750Y-122715000D01*
G75*
G02*
X208412500Y-122933750I0J-218750D01*
G01*
X208412500Y-123446250D01*
G75*
G02*
X208193750Y-123665000I-218750J0D01*
G01*
X207756250Y-123665000D01*
G75*
G02*
X207537500Y-123446250I0J218750D01*
G01*
G37*
%TD*%
D25*
%TO.C,Lbst1*%
X187960000Y-127000000D03*
X178060000Y-127000000D03*
%TD*%
D26*
%TO.C,DZ1*%
X195580000Y-136850000D03*
X195580000Y-133350000D03*
%TD*%
%TO.C,D_LD1*%
G36*
G01*
X193761523Y-120886045D02*
X193761523Y-118736045D01*
G75*
G02*
X194011523Y-118486045I250000J0D01*
G01*
X194761523Y-118486045D01*
G75*
G02*
X195011523Y-118736045I0J-250000D01*
G01*
X195011523Y-120886045D01*
G75*
G02*
X194761523Y-121136045I-250000J0D01*
G01*
X194011523Y-121136045D01*
G75*
G02*
X193761523Y-120886045I0J250000D01*
G01*
G37*
G36*
G01*
X190961523Y-120886045D02*
X190961523Y-118736045D01*
G75*
G02*
X191211523Y-118486045I250000J0D01*
G01*
X191961523Y-118486045D01*
G75*
G02*
X192211523Y-118736045I0J-250000D01*
G01*
X192211523Y-120886045D01*
G75*
G02*
X191961523Y-121136045I-250000J0D01*
G01*
X191211523Y-121136045D01*
G75*
G02*
X190961523Y-120886045I0J250000D01*
G01*
G37*
%TD*%
%TO.C,Cstor1*%
G36*
G01*
X187140000Y-134370000D02*
X187140000Y-134870000D01*
G75*
G02*
X186915000Y-135095000I-225000J0D01*
G01*
X186465000Y-135095000D01*
G75*
G02*
X186240000Y-134870000I0J225000D01*
G01*
X186240000Y-134370000D01*
G75*
G02*
X186465000Y-134145000I225000J0D01*
G01*
X186915000Y-134145000D01*
G75*
G02*
X187140000Y-134370000I0J-225000D01*
G01*
G37*
G36*
G01*
X188690000Y-134370000D02*
X188690000Y-134870000D01*
G75*
G02*
X188465000Y-135095000I-225000J0D01*
G01*
X188015000Y-135095000D01*
G75*
G02*
X187790000Y-134870000I0J225000D01*
G01*
X187790000Y-134370000D01*
G75*
G02*
X188015000Y-134145000I225000J0D01*
G01*
X188465000Y-134145000D01*
G75*
G02*
X188690000Y-134370000I0J-225000D01*
G01*
G37*
%TD*%
%TO.C,Cref1*%
G36*
G01*
X169160000Y-133025000D02*
X168660000Y-133025000D01*
G75*
G02*
X168435000Y-132800000I0J225000D01*
G01*
X168435000Y-132350000D01*
G75*
G02*
X168660000Y-132125000I225000J0D01*
G01*
X169160000Y-132125000D01*
G75*
G02*
X169385000Y-132350000I0J-225000D01*
G01*
X169385000Y-132800000D01*
G75*
G02*
X169160000Y-133025000I-225000J0D01*
G01*
G37*
G36*
G01*
X169160000Y-134575000D02*
X168660000Y-134575000D01*
G75*
G02*
X168435000Y-134350000I0J225000D01*
G01*
X168435000Y-133900000D01*
G75*
G02*
X168660000Y-133675000I225000J0D01*
G01*
X169160000Y-133675000D01*
G75*
G02*
X169385000Y-133900000I0J-225000D01*
G01*
X169385000Y-134350000D01*
G75*
G02*
X169160000Y-134575000I-225000J0D01*
G01*
G37*
%TD*%
%TO.C,CP1*%
G36*
G01*
X198289999Y-135725000D02*
X200490001Y-135725000D01*
G75*
G02*
X200740000Y-135974999I0J-249999D01*
G01*
X200740000Y-136625001D01*
G75*
G02*
X200490001Y-136875000I-249999J0D01*
G01*
X198289999Y-136875000D01*
G75*
G02*
X198040000Y-136625001I0J249999D01*
G01*
X198040000Y-135974999D01*
G75*
G02*
X198289999Y-135725000I249999J0D01*
G01*
G37*
G36*
G01*
X198289999Y-132775000D02*
X200490001Y-132775000D01*
G75*
G02*
X200740000Y-133024999I0J-249999D01*
G01*
X200740000Y-133675001D01*
G75*
G02*
X200490001Y-133925000I-249999J0D01*
G01*
X198289999Y-133925000D01*
G75*
G02*
X198040000Y-133675001I0J249999D01*
G01*
X198040000Y-133024999D01*
G75*
G02*
X198289999Y-132775000I249999J0D01*
G01*
G37*
%TD*%
%TO.C,C_hv1*%
G36*
G01*
X168259999Y-148015000D02*
X169560001Y-148015000D01*
G75*
G02*
X169810000Y-148264999I0J-249999D01*
G01*
X169810000Y-148915001D01*
G75*
G02*
X169560001Y-149165000I-249999J0D01*
G01*
X168259999Y-149165000D01*
G75*
G02*
X168010000Y-148915001I0J249999D01*
G01*
X168010000Y-148264999D01*
G75*
G02*
X168259999Y-148015000I249999J0D01*
G01*
G37*
G36*
G01*
X168259999Y-145065000D02*
X169560001Y-145065000D01*
G75*
G02*
X169810000Y-145314999I0J-249999D01*
G01*
X169810000Y-145965001D01*
G75*
G02*
X169560001Y-146215000I-249999J0D01*
G01*
X168259999Y-146215000D01*
G75*
G02*
X168010000Y-145965001I0J249999D01*
G01*
X168010000Y-145314999D01*
G75*
G02*
X168259999Y-145065000I249999J0D01*
G01*
G37*
%TD*%
%TO.C,Cbyp1*%
G36*
G01*
X173045000Y-131060000D02*
X173045000Y-130560000D01*
G75*
G02*
X173270000Y-130335000I225000J0D01*
G01*
X173720000Y-130335000D01*
G75*
G02*
X173945000Y-130560000I0J-225000D01*
G01*
X173945000Y-131060000D01*
G75*
G02*
X173720000Y-131285000I-225000J0D01*
G01*
X173270000Y-131285000D01*
G75*
G02*
X173045000Y-131060000I0J225000D01*
G01*
G37*
G36*
G01*
X171495000Y-131060000D02*
X171495000Y-130560000D01*
G75*
G02*
X171720000Y-130335000I225000J0D01*
G01*
X172170000Y-130335000D01*
G75*
G02*
X172395000Y-130560000I0J-225000D01*
G01*
X172395000Y-131060000D01*
G75*
G02*
X172170000Y-131285000I-225000J0D01*
G01*
X171720000Y-131285000D01*
G75*
G02*
X171495000Y-131060000I0J225000D01*
G01*
G37*
%TD*%
%TO.C,C401*%
G36*
G01*
X228293960Y-131848581D02*
X228793960Y-131848581D01*
G75*
G02*
X229018960Y-132073581I0J-225000D01*
G01*
X229018960Y-132523581D01*
G75*
G02*
X228793960Y-132748581I-225000J0D01*
G01*
X228293960Y-132748581D01*
G75*
G02*
X228068960Y-132523581I0J225000D01*
G01*
X228068960Y-132073581D01*
G75*
G02*
X228293960Y-131848581I225000J0D01*
G01*
G37*
G36*
G01*
X228293960Y-130298581D02*
X228793960Y-130298581D01*
G75*
G02*
X229018960Y-130523581I0J-225000D01*
G01*
X229018960Y-130973581D01*
G75*
G02*
X228793960Y-131198581I-225000J0D01*
G01*
X228293960Y-131198581D01*
G75*
G02*
X228068960Y-130973581I0J225000D01*
G01*
X228068960Y-130523581D01*
G75*
G02*
X228293960Y-130298581I225000J0D01*
G01*
G37*
%TD*%
%TO.C,C231*%
G36*
G01*
X215080000Y-148340000D02*
X215080000Y-148840000D01*
G75*
G02*
X214855000Y-149065000I-225000J0D01*
G01*
X214405000Y-149065000D01*
G75*
G02*
X214180000Y-148840000I0J225000D01*
G01*
X214180000Y-148340000D01*
G75*
G02*
X214405000Y-148115000I225000J0D01*
G01*
X214855000Y-148115000D01*
G75*
G02*
X215080000Y-148340000I0J-225000D01*
G01*
G37*
G36*
G01*
X216630000Y-148340000D02*
X216630000Y-148840000D01*
G75*
G02*
X216405000Y-149065000I-225000J0D01*
G01*
X215955000Y-149065000D01*
G75*
G02*
X215730000Y-148840000I0J225000D01*
G01*
X215730000Y-148340000D01*
G75*
G02*
X215955000Y-148115000I225000J0D01*
G01*
X216405000Y-148115000D01*
G75*
G02*
X216630000Y-148340000I0J-225000D01*
G01*
G37*
%TD*%
%TO.C,C221*%
G36*
G01*
X215450000Y-141220000D02*
X215450000Y-140720000D01*
G75*
G02*
X215675000Y-140495000I225000J0D01*
G01*
X216125000Y-140495000D01*
G75*
G02*
X216350000Y-140720000I0J-225000D01*
G01*
X216350000Y-141220000D01*
G75*
G02*
X216125000Y-141445000I-225000J0D01*
G01*
X215675000Y-141445000D01*
G75*
G02*
X215450000Y-141220000I0J225000D01*
G01*
G37*
G36*
G01*
X213900000Y-141220000D02*
X213900000Y-140720000D01*
G75*
G02*
X214125000Y-140495000I225000J0D01*
G01*
X214575000Y-140495000D01*
G75*
G02*
X214800000Y-140720000I0J-225000D01*
G01*
X214800000Y-141220000D01*
G75*
G02*
X214575000Y-141445000I-225000J0D01*
G01*
X214125000Y-141445000D01*
G75*
G02*
X213900000Y-141220000I0J225000D01*
G01*
G37*
%TD*%
%TO.C,C3*%
G36*
G01*
X29323436Y-147109450D02*
X29823436Y-147109450D01*
G75*
G02*
X30048436Y-147334450I0J-225000D01*
G01*
X30048436Y-147784450D01*
G75*
G02*
X29823436Y-148009450I-225000J0D01*
G01*
X29323436Y-148009450D01*
G75*
G02*
X29098436Y-147784450I0J225000D01*
G01*
X29098436Y-147334450D01*
G75*
G02*
X29323436Y-147109450I225000J0D01*
G01*
G37*
G36*
G01*
X29323436Y-145559450D02*
X29823436Y-145559450D01*
G75*
G02*
X30048436Y-145784450I0J-225000D01*
G01*
X30048436Y-146234450D01*
G75*
G02*
X29823436Y-146459450I-225000J0D01*
G01*
X29323436Y-146459450D01*
G75*
G02*
X29098436Y-146234450I0J225000D01*
G01*
X29098436Y-145784450D01*
G75*
G02*
X29323436Y-145559450I225000J0D01*
G01*
G37*
%TD*%
%TO.C,C2*%
G36*
G01*
X144723976Y-147570424D02*
X144223976Y-147570424D01*
G75*
G02*
X143998976Y-147345424I0J225000D01*
G01*
X143998976Y-146895424D01*
G75*
G02*
X144223976Y-146670424I225000J0D01*
G01*
X144723976Y-146670424D01*
G75*
G02*
X144948976Y-146895424I0J-225000D01*
G01*
X144948976Y-147345424D01*
G75*
G02*
X144723976Y-147570424I-225000J0D01*
G01*
G37*
G36*
G01*
X144723976Y-149120424D02*
X144223976Y-149120424D01*
G75*
G02*
X143998976Y-148895424I0J225000D01*
G01*
X143998976Y-148445424D01*
G75*
G02*
X144223976Y-148220424I225000J0D01*
G01*
X144723976Y-148220424D01*
G75*
G02*
X144948976Y-148445424I0J-225000D01*
G01*
X144948976Y-148895424D01*
G75*
G02*
X144723976Y-149120424I-225000J0D01*
G01*
G37*
%TD*%
%TO.C,C1*%
G36*
G01*
X268220000Y-147770000D02*
X267720000Y-147770000D01*
G75*
G02*
X267495000Y-147545000I0J225000D01*
G01*
X267495000Y-147095000D01*
G75*
G02*
X267720000Y-146870000I225000J0D01*
G01*
X268220000Y-146870000D01*
G75*
G02*
X268445000Y-147095000I0J-225000D01*
G01*
X268445000Y-147545000D01*
G75*
G02*
X268220000Y-147770000I-225000J0D01*
G01*
G37*
G36*
G01*
X268220000Y-149320000D02*
X267720000Y-149320000D01*
G75*
G02*
X267495000Y-149095000I0J225000D01*
G01*
X267495000Y-148645000D01*
G75*
G02*
X267720000Y-148420000I225000J0D01*
G01*
X268220000Y-148420000D01*
G75*
G02*
X268445000Y-148645000I0J-225000D01*
G01*
X268445000Y-149095000D01*
G75*
G02*
X268220000Y-149320000I-225000J0D01*
G01*
G37*
%TD*%
M02*
