%TF.GenerationSoftware,KiCad,Pcbnew,5.1.7-a382d34a8~87~ubuntu18.04.1*%
%TF.CreationDate,2020-11-02T20:34:46+02:00*%
%TF.ProjectId,sens-rf-1w-1-kicad,73656e73-2d72-4662-9d31-772d312d6b69,0.0*%
%TF.SameCoordinates,Original*%
%TF.FileFunction,Profile,NP*%
%FSLAX46Y46*%
G04 Gerber Fmt 4.6, Leading zero omitted, Abs format (unit mm)*
G04 Created by KiCad (PCBNEW 5.1.7-a382d34a8~87~ubuntu18.04.1) date 2020-11-02 20:34:46*
%MOMM*%
%LPD*%
G01*
G04 APERTURE LIST*
%TA.AperFunction,Profile*%
%ADD10C,0.200000*%
%TD*%
G04 APERTURE END LIST*
D10*
X263508526Y-150474875D02*
X262890000Y-151130000D01*
X273398963Y-150494230D02*
X263508526Y-150474875D01*
X275063499Y-147513550D02*
X273398963Y-150494230D01*
X274695752Y-147010318D02*
X275063499Y-147513550D01*
X273050000Y-144780000D02*
X274695752Y-147010318D01*
X245110000Y-144780000D02*
X273050000Y-144780000D01*
X175260000Y-116840000D02*
X240030000Y-116840000D01*
X167640000Y-124460000D02*
X175260000Y-116840000D01*
X154940000Y-124460000D02*
X167640000Y-124460000D01*
X153670000Y-125730000D02*
X154940000Y-124460000D01*
X36830000Y-149860000D02*
X24130000Y-149860000D01*
X36830000Y-154940000D02*
X36830000Y-149860000D01*
X38100000Y-156210000D02*
X36830000Y-154940000D01*
X41910000Y-156210000D02*
X38100000Y-156210000D01*
X43180000Y-154940000D02*
X41910000Y-156210000D01*
X43180000Y-149860000D02*
X43180000Y-154940000D01*
X130810000Y-149860000D02*
X43180000Y-149860000D01*
X130810000Y-154940000D02*
X130810000Y-149860000D01*
X132080000Y-156210000D02*
X130810000Y-154940000D01*
X135890000Y-156210000D02*
X132080000Y-156210000D01*
X137160000Y-154940000D02*
X135890000Y-156210000D01*
X137160000Y-149860000D02*
X137160000Y-154940000D01*
X153670000Y-149860000D02*
X137160000Y-149860000D01*
X42100000Y-152764706D02*
G75*
G03*
X42100000Y-152764706I-2000000J0D01*
G01*
X136080000Y-152764706D02*
G75*
G03*
X136080000Y-152764706I-2000000J0D01*
G01*
X243300000Y-127000000D02*
G75*
G03*
X243300000Y-127000000I-2000000J0D01*
G01*
X212280000Y-152764706D02*
G75*
G03*
X212280000Y-152764706I-2000000J0D01*
G01*
X207010000Y-154940000D02*
X207010000Y-151130000D01*
X208280000Y-156210000D02*
X207010000Y-154940000D01*
X243840000Y-156210000D02*
X208280000Y-156210000D01*
X245110000Y-154940000D02*
X243840000Y-156210000D01*
X245110000Y-151130000D02*
X245110000Y-154940000D01*
X255270000Y-154940000D02*
X255270000Y-151130000D01*
X256540000Y-156210000D02*
X255270000Y-154940000D01*
X261620000Y-156210000D02*
X256540000Y-156210000D01*
X262890000Y-154940000D02*
X262890000Y-151130000D01*
X261620000Y-156210000D02*
X262890000Y-154940000D01*
X261080000Y-153130000D02*
G75*
G03*
X261080000Y-153130000I-2000000J0D01*
G01*
X245110000Y-151130000D02*
X255270000Y-151130000D01*
X243224069Y-152764706D02*
G75*
G03*
X243224069Y-152764706I-2000000J0D01*
G01*
X23664154Y-149482898D02*
X24130000Y-149860000D01*
X23664154Y-145883109D02*
X23664154Y-149482898D01*
X24130000Y-144780000D02*
X23664154Y-145883109D01*
X35560000Y-143510000D02*
X24130000Y-144780000D01*
X153670000Y-143510000D02*
X35560000Y-143510000D01*
X190500000Y-151130000D02*
X207010000Y-151130000D01*
X153670000Y-151130000D02*
X153670000Y-149860000D01*
X190500000Y-151130000D02*
X153670000Y-151130000D01*
X245110000Y-121920000D02*
X245110000Y-144780000D01*
X240030000Y-116840000D02*
X245110000Y-121920000D01*
X153670000Y-143510000D02*
X153670000Y-125730000D01*
M02*
